<?xml version="1.0" encoding="UTF-8" standalone="no"?>
<!-- Created with Inkscape (http://www.inkscape.org/) -->

<svg
   xmlns:dc="http://purl.org/dc/elements/1.1/"
   xmlns:cc="http://creativecommons.org/ns#"
   xmlns:rdf="http://www.w3.org/1999/02/22-rdf-syntax-ns#"
   xmlns:svg="http://www.w3.org/2000/svg"
   xmlns="http://www.w3.org/2000/svg"
   xmlns:sodipodi="http://sodipodi.sourceforge.net/DTD/sodipodi-0.dtd"
   xmlns:inkscape="http://www.inkscape.org/namespaces/inkscape"
   width="150"
   height="150"
   viewBox="0 0 39.687501 39.687501"
   version="1.1"
   id="svg8"
   inkscape:version="0.92.2 (5c3e80d, 2017-08-06)"
   sodipodi:docname="sun.svg">
  <defs
     id="defs2" />
  <sodipodi:namedview
     id="base"
     pagecolor="#ffffff"
     bordercolor="#666666"
     borderopacity="1.0"
     inkscape:pageopacity="0.0"
     inkscape:pageshadow="2"
     inkscape:zoom="0.35"
     inkscape:cx="-782.08883"
     inkscape:cy="820.60745"
     inkscape:document-units="px"
     inkscape:current-layer="layer1"
     showgrid="false"
     showguides="false"
     inkscape:window-width="2400"
     inkscape:window-height="1271"
     inkscape:window-x="-9"
     inkscape:window-y="-9"
     inkscape:window-maximized="1"
     units="px" />
  <metadata
     id="metadata5">
    <rdf:RDF>
      <cc:Work
         rdf:about="">
        <dc:format>image/svg+xml</dc:format>
        <dc:type
           rdf:resource="http://purl.org/dc/dcmitype/StillImage" />
        <dc:title></dc:title>
      </cc:Work>
    </rdf:RDF>
  </metadata>
  <g
     inkscape:label="Layer 1"
     inkscape:groupmode="layer"
     id="layer1"
     transform="translate(0,-257.31251)">
    <g
       id="g934"
       transform="matrix(0.08995204,0,0,0.08995472,39.162558,278.89431)">
      <path
         id="path918"
         d="m -226.87938,195.12643 c -33.36126,-18.92977 -45.75383,-22.38624 -80.26191,-22.38624 h -18.18432 l -7.13733,-12.32786 c -10.80509,-18.66294 -16.84014,-27.08608 -25.89304,-36.13897 -9.04311,-9.04312 -17.47857,-15.0895 -36.05981,-25.847049 l -12.2487,-7.09134 -0.10048,-18.34133 c -0.18671,-34.07926 -3.25641,-45.67224 -20.12039,-75.9862096 -4.66739,-8.3899104 -8.48617,-15.7500904 -8.48617,-16.3559804 0,-0.60588 3.26208,-6.97764 7.24907,-14.15946 10.29873,-18.55124 12.36764,-22.88267 15.67037,-32.80709 3.89898,-11.716112 5.61296,-24.139622 5.70507,-41.352231 0.0417,-7.78984 0.33366,-16.09211 0.64883,-18.4495 l 0.57305,-4.28617 13.90124,-8.28638 c 31.00909,-18.48419 38.73558,-26.17914 57.08117,-56.84818 l 8.69429,-14.53459 4.2824,-0.57305 c 2.35531,-0.31517 10.65589,-0.60715 18.44572,-0.64883 17.21262,-0.0921 29.63612,-1.80609 41.35224,-5.70507 9.92442,-3.30273 14.25584,-5.37164 32.80709,-15.67037 7.18182,-3.98699 13.55358,-7.24907 14.15946,-7.24907 0.60588,0 7.96607,3.81878 16.35597,8.48617 30.31398,16.86398 41.90695,19.93368 75.98621,20.12039 l 18.34133,0.10048 7.091343,12.2487 c 10.75755,18.58124 16.80393,27.0167 25.84705,36.05981 9.05289,9.05291 17.47603,15.08796 36.13897,25.89304 l 12.32786,7.13734 0.005,18.29532 c 0.009,33.520909 3.2178,45.704761 19.9502799,75.759391 4.72633,8.48936 8.59333,15.93093 8.59333,16.53682 0,0.60588 -3.26208,6.97764 -7.24906,14.1594604 C -11.711977,13.429621 -13.780887,17.761051 -17.083617,27.685471 c -3.99001,11.98962 -5.61903,24.09943 -5.67914,42.21734 -0.0763,22.99823 1.23879,20.38163 -15.15766,30.159009 -31.00377,18.48787 -38.72202,26.17465 -57.07097,56.83819 -10.249753,17.1287 -7.511643,15.71386 -30.558893,15.79032 -18.11791,0.0601 -30.22771,1.68914 -42.21734,5.67914 -9.92442,3.30273 -14.25585,5.37165 -32.80709,15.67037 -7.18182,3.98699 -13.60528,7.24311 -14.27436,7.23583 -0.66908,-0.007 -6.08276,-2.77444 -12.03041,-6.14924 z"
         style="fill:#f29e77;fill-opacity:1;stroke-width:0.86511266"
         inkscape:connector-curvature="0" />
      <ellipse
         ry="169.33333"
         rx="169.7113"
         cy="-19.321436"
         cx="-214.76785"
         id="path838-3"
         style="fill:#e9c16e;fill-opacity:1;stroke:none;stroke-width:1.38425863;stroke-linejoin:round;stroke-miterlimit:4;stroke-dasharray:none;stroke-opacity:1" />
      <path
         id="path916"
         d="m -175.31453,122.53211 c 19.29453,-1.55081 39.77749,-6.56605 54.49405,-13.34285 8.74513,-4.02701 23.925863,-12.883929 31.362123,-18.297659 8.39856,-6.11428 15.31803,-15.37982 25.49521,-34.13942 13.03711,-24.03127 20.10931,-58.1253996 17.84243,-86.01579 -2.14988,-26.45092 -6.17173,-41.889052 -16.47011,-63.221592 -9.06887,-18.785679 -17.70985,-30.898659 -32.90326,-46.124019 -14.950993,-14.98244 -25.307033,-22.45118 -44.115993,-31.81633 -22.18312,-11.04516 -37.18069,-15.11513 -64.66169,-17.54759 -28.40488,-2.51424 -61.86841,4.62165 -87.92361,18.74917 -27.19152,14.74365 -32.96884,20.81199 -48.32828,50.76281 -16.90684,32.968259 -21.19925,76.755541 -11.2457,114.7183714 2.81761,10.74636 6.83714,21.8547996 9.86065,27.2510496 1.33298,2.37906 3.11973,6.07742 3.97054,8.21857 2.03599,5.12377 8.82957,16.03997 15.34422,24.65571 13.87325,18.34762 43.045,42.68093 57.20975,47.720899 1.89923,0.67577 5.40294,2.32385 7.78601,3.66241 7.46644,4.19383 26.93831,10.53025 38.93738,12.67076 3.53822,0.63119 24.66077,2.69824 29.50448,2.88732 1.47729,0.0577 7.7061,-0.29866 13.8418,-0.79182 z"
         style="fill:#f6d78f;fill-opacity:1;stroke-width:0.86511266"
         inkscape:connector-curvature="0" />
      <path
         id="path914"
         d="m -299.67799,-4.7192486 c -4.44054,-1.62721 -5.25408,-8.8251204 -1.30973,-11.5878504 1.3991,-0.97998 4.66534,-1.27749 14.0247,-1.27749 11.63483,0 12.28811,0.0929 14.08187,2.00226 3.18651,3.39188 2.39575,8.4862404 -1.6413,10.5738704 -2.84494,1.47117 -21.34948,1.68392 -25.15554,0.28921 z"
         style="fill:#f07383;fill-opacity:1;stroke-width:0.86511266"
         inkscape:connector-curvature="0" />
      <path
         id="path912"
         d="m -156.41202,-5.8662486 c -2.80971,-2.8097 -2.86454,-7.2600804 -0.1212,-9.8373204 1.8591,-1.74652 2.869,-1.88102 14.12356,-1.88102 11.47435,0 12.21481,0.10389 13.87341,1.9465 2.53295,2.81399 2.83561,4.28501 1.52361,7.4053504 -1.61142,3.83246 -4.02455,4.48995 -16.479,4.48995 -10.30991,0 -10.8927,-0.0958 -12.92038,-2.12346 z"
         style="fill:#f07383;fill-opacity:1;stroke-width:0.86511266"
         inkscape:connector-curvature="0" />
      <path
         id="path910"
         d="m -221.74165,-5.7374586 c -6.38932,-1.806 -12.92374,-7.3970704 -12.92374,-11.0579804 0,-2.68617 1.82655,-5.74599 4.02911,-6.74954 3.04299,-1.38648 3.9921,-1.22424 7.74546,1.32396 6.35797,4.31649 10.81544,4.29705 16.00518,-0.0698 1.44757,-1.21806 3.36236,-2.21464 4.25509,-2.21464 4.21053,0 7.76034,3.5664 7.76034,7.79662 0,2.42902 -4.4584,7.1030004 -8.88341,9.3129604 -4.81009,2.40227 -12.76257,3.13547 -17.98803,1.65845 z"
         style="fill:#000000;stroke-width:0.86511266"
         inkscape:connector-curvature="0" />
      <path
         id="path908"
         d="m -291.07998,-25.684899 c -2.35025,-1.78559 -3.27818,-5.34927 -3.27818,-12.58962 0,-10.44441 1.83388,-13.91458 7.35345,-13.91458 5.51958,0 7.35346,3.47017 7.35346,13.91458 0,10.08997 -1.94321,13.714 -7.35346,13.714 -1.42743,0 -3.26131,-0.50597 -4.07527,-1.12438 z"
         style="fill:#000000;stroke-width:0.86511266"
         inkscape:connector-curvature="0" />
      <path
         id="path834"
         d="m -146.94288,-26.523169 c -2.10743,-1.81274 -2.38688,-2.72923 -2.75122,-9.02309 -0.70607,-12.19676 1.20756,-16.64284 7.16321,-16.64284 5.9228,0 7.77642,4.23662 7.21947,16.50076 -0.29182,6.42627 -0.5249,7.20177 -2.73609,9.10376 -3.04711,2.62101 -5.89679,2.64069 -8.89537,0.0614 z"
         style="fill:#000000;stroke-width:0.86511266"
         inkscape:connector-curvature="0" />
    </g>
  </g>
</svg>
