<?xml version="1.0" encoding="UTF-8" standalone="no"?>
<!-- Created with Inkscape (http://www.inkscape.org/) -->

<svg
   xmlns:dc="http://purl.org/dc/elements/1.1/"
   xmlns:cc="http://creativecommons.org/ns#"
   xmlns:rdf="http://www.w3.org/1999/02/22-rdf-syntax-ns#"
   xmlns:svg="http://www.w3.org/2000/svg"
   xmlns="http://www.w3.org/2000/svg"
   xmlns:sodipodi="http://sodipodi.sourceforge.net/DTD/sodipodi-0.dtd"
   xmlns:inkscape="http://www.inkscape.org/namespaces/inkscape"
   width="150"
   height="150"
   viewBox="0 0 39.687501 39.687501"
   version="1.1"
   id="svg8"
   inkscape:version="0.92.2 (5c3e80d, 2017-08-06)"
   sodipodi:docname="lightcloud.svg">
  <defs
     id="defs2">
    <mask
       maskUnits="userSpaceOnUse"
       id="mask1086">
      <rect
         style="fill:#b3b3b3;fill-opacity:1;stroke:none;stroke-width:15.10569286;stroke-linejoin:round;stroke-miterlimit:4;stroke-dasharray:none;stroke-opacity:1"
         id="rect1088"
         width="223.38394"
         height="98.651787"
         x="85.04464"
         y="128.42262" />
    </mask>
  </defs>
  <sodipodi:namedview
     id="base"
     pagecolor="#ffffff"
     bordercolor="#666666"
     borderopacity="1.0"
     inkscape:pageopacity="0.0"
     inkscape:pageshadow="2"
     inkscape:zoom="1.979899"
     inkscape:cx="22.455843"
     inkscape:cy="-27.085627"
     inkscape:document-units="px"
     inkscape:current-layer="layer1"
     showgrid="false"
     showguides="false"
     inkscape:window-width="2400"
     inkscape:window-height="1271"
     inkscape:window-x="-9"
     inkscape:window-y="-9"
     inkscape:window-maximized="1"
     units="px" />
  <metadata
     id="metadata5">
    <rdf:RDF>
      <cc:Work
         rdf:about="">
        <dc:format>image/svg+xml</dc:format>
        <dc:type
           rdf:resource="http://purl.org/dc/dcmitype/StillImage" />
        <dc:title></dc:title>
      </cc:Work>
    </rdf:RDF>
  </metadata>
  <g
     inkscape:label="Layer 1"
     inkscape:groupmode="layer"
     id="layer1"
     transform="translate(0,-257.31251)">
    <g
       id="g1099"
       transform="matrix(0.13127656,0,0,0.12936408,26.507895,250.13647)">
      <path
         inkscape:connector-curvature="0"
         id="path1011"
         d="m -118.36564,361.68712 c -6.26834,-0.55893 -10.84769,-1.61793 -18.18862,-4.20622 -10.31667,-3.63747 -20.32083,-11.32326 -28.33087,-21.76544 -5.17179,-6.74215 -5.47802,-7.27922 -8.1098,-14.22329 -3.85855,-10.18095 -4.57472,-14.29129 -4.57472,-26.25598 0,-9.08187 0.17959,-11.10473 1.34165,-15.11206 2.47577,-8.53757 8.71942,-19.96736 14.29495,-26.16869 1.45089,-1.61375 2.63799,-3.18007 2.63799,-3.48073 0,-1.56569 -12.04374,-10.30737 -21.63385,-15.70244 l -4.55759,-2.56395 -0.33628,-11.47629 c -0.50041,-17.07727 -2.2419,-23.41913 -10.67486,-38.87387 l -4.83687,-8.86435 3.57257,-6.43487 c 9.91506,-17.85889 11.29155,-22.59304 11.98595,-41.22323 l 0.41717,-11.19234 8.54313,-5.1705 c 14.96461,-9.056917 19.99272,-14.088928 28.95673,-28.979261 l 5.14485,-8.546232 11.21799,-0.41717 c 18.65743,-0.693827 23.38283,-2.066916 41.24887,-11.985949 l 6.434878,-3.572573 9.101519,4.966292 c 15.275346,8.335069 21.538072,10.044408 38.6367,10.54544 l 11.476287,0.336284 2.562595,4.55759 c 9.980197,17.749826 15.365125,23.363035 32.272368,33.640479 l 7.521653,4.57221 0.41273,10.28268 c 0.760763,18.95337 2.630013,25.51132 11.953775,41.93775 1.931283,3.40249 3.50941,6.50318 3.50696,6.89042 -0.0024,0.38724 -1.241714,2.86107 -2.753915,5.49741 -4.062256,7.082 -7.275839,13.61118 -8.932104,18.14772 l -1.468211,4.02145 3.433718,2.95537 c 6.416939,5.523 14.699618,14.8144 18.26846,20.49334 3.734427,5.94242 9.110943,20.04134 10.636039,27.89104 l 0.661822,3.40639 3.410787,0.385 c 4.809728,0.54289 8.625073,1.84396 14.482654,4.93869 6.634078,3.50498 10.837893,6.79298 16.446376,12.86347 5.144627,5.56843 8.223098,11.20821 10.922688,20.01046 1.470431,4.79448 1.633691,6.23639 1.653751,14.60669 0.02,8.31904 -0.14857,9.90344 -1.616561,15.20014 -5.977769,21.56849 -23.668279,35.899 -47.053637,38.11663 -7.702332,0.73041 -161.848482,0.68736 -170.089722,-0.0475 z"
         style="fill:#ebecec;fill-opacity:1;stroke-width:0.59916687" />
      <path
         id="path1027"
         d="m -42.251557,294.3495 c -7.969465,-1.63199 -13.662095,-8.41811 -10.042288,-11.97131 1.967634,-1.93142 3.936364,-2.03839 6.25632,-0.33993 5.007957,3.66636 9.25584,4.19916 12.515632,1.56981 0.852386,-0.68754 2.389231,-1.68334 3.415215,-2.2129 1.620027,-0.83617 2.092237,-0.85413 3.589543,-0.13649 0.948265,0.45449 2.061685,1.53065 2.474259,2.39147 2.722645,5.6806 -9.020595,12.58089 -18.208681,10.69935 z"
         style="fill:#464d57;fill-opacity:1;stroke-width:0.59916687"
         inkscape:connector-curvature="0" />
      <path
         id="path1025"
         d="m -83.527684,289.29135 c -1.352217,-1.35221 -1.470685,-1.92297 -1.470685,-7.08555 0,-5.09447 0.128534,-5.73563 1.386742,-6.91766 1.747422,-1.64162 4.799195,-1.70767 6.369006,-0.13786 1.481932,1.48193 2.043081,4.48405 1.706889,9.13183 -0.222147,3.07118 -0.530173,3.89288 -1.901444,5.0724 -2.104191,1.80995 -4.239549,1.78781 -6.090508,-0.0632 z"
         style="fill:#464d57;fill-opacity:1;stroke-width:0.59916687"
         inkscape:connector-curvature="0" />
      <path
         id="path1023"
         d="m 0.37247345,289.40712 c -1.28263653,-1.10327 -1.63712765,-2.0381 -1.90874195,-5.03349 -0.6319772,-6.96954 0.95115345,-10.38827 4.810573,-10.38827 1.308179,0 2.4401371,0.47634 3.2954178,1.38675 1.1433483,1.21704 1.3027746,2.06357 1.3027746,6.91765 0,5.07344 -0.1216429,5.65256 -1.4706851,7.00159 -1.8345471,1.83456 -3.9831715,1.87581 -6.02933835,0.11577 z"
         style="fill:#464d57;fill-opacity:1;stroke-width:0.59916687"
         inkscape:connector-curvature="0" />
      <path
         inkscape:connector-curvature="0"
         id="path1021"
         d="m -163.10825,249.2688 c -3.55212,-3.26618 -11.00693,-8.40548 -18.29996,-12.61587 l -4.61915,-2.66671 -0.37415,-3.96018 c -0.20578,-2.17808 -0.37609,-6.85487 -0.37845,-10.39285 -0.009,-13.86648 -2.88936,-23.09541 -12.35981,-39.60591 -1.52888,-2.6654 -2.7818,-5.22828 -2.78428,-5.69531 -0.002,-0.46701 1.24389,-3.01346 2.76969,-5.65876 9.45677,-16.39523 12.32159,-25.7012 12.42316,-40.35484 0.0292,-4.21116 0.23364,-8.99295 0.45432,-10.62621 l 0.40127,-2.96953 7.31208,-4.35182 c 16.02062,-9.53472 21.42909,-14.948653 30.8442,-30.875343 l 4.31274,-7.295448 2.99633,-0.401259 c 1.64798,-0.220693 6.44183,-0.425141 10.65299,-0.454329 14.65364,-0.101565 23.95961,-2.96639 40.354851,-12.423157 2.645293,-1.525804 5.191736,-2.772162 5.658755,-2.769684 0.467026,0.0024 3.02991,1.25554 5.695303,2.784583 17.596111,10.094278 24.643344,12.09857 44.124149,12.549272 l 9.595195,0.221992 4.077386,6.93437 c 10.038789,17.072868 15.0304948,22.032883 32.848839,32.640323 l 6.443388,3.83581 0.301504,11.85845 c 0.465984,18.3276 1.972555,23.4554 12.17503,41.4391 l 3.378707,5.95557 -2.602435,4.64543 c -4.088283,7.29768 -7.961214,15.20936 -9.454282,19.31337 l -1.3694,3.76406 -3.663601,-2.4879 c -8.7545975,-5.94514 -20.6084596,-10.80457 -31.719071,-13.00309 -8.276227,-1.63768 -25.208098,-1.49765 -33.382633,0.27605 -24.104274,5.23014 -46.099666,21.28566 -57.398605,41.8981 l -2.25458,4.11297 -6.19885,0.016 c -16.10811,0.0416 -32.22571,6.1454 -43.54573,16.49125 l -3.1471,2.87629 -3.2678,-3.00475 z"
         style="fill:#f29e77;fill-opacity:1;stroke-width:0.60577106" />
      <path
         id="path1019"
         d="m -139.52255,219.23212 c 6.32527,-2.10418 13.0285,-3.59102 19.21114,-4.26121 2.87861,-0.31203 3.47648,-0.60381 4.38349,-2.13925 4.38121,-7.4168 17.927396,-20.96207 27.33455,-27.3327 6.018811,-4.07601 15.621778,-9.16484 21.262,-11.26722 20.461045,-7.6268 46.968673,-8.60026 66.0669076,-2.42621 3.6050492,1.16543 6.7628983,2.11897 7.0174424,2.11897 0.5162901,0 -0.033913,-7.81077 -0.8441303,-11.98334 -0.2879536,-1.48294 -0.8362991,-4.314 -1.2185496,-6.29125 -1.651208,-8.54113 -5.8552025,-19.07335 -10.8959635,-27.29755 -5.2388516,-8.54738 -15.6765486,-19.92607 -23.3389696,-25.44306 -9.771154,-7.035281 -23.010189,-12.988023 -34.681229,-15.593914 -6.789735,-1.516002 -25.849449,-1.877518 -33.172802,-0.629207 -38.149366,6.502799 -67.335226,35.688661 -73.838026,73.838021 -1.24831,7.32335 -0.88679,26.38307 0.62921,33.1728 2.25043,10.07904 8.39293,24.56853 13.39074,31.58731 l 1.33072,1.86882 5.53611,-2.91408 c 3.04486,-1.60274 8.36717,-3.85586 11.82736,-5.00693 z"
         style="fill:#f6d78f;fill-opacity:1;stroke-width:0.59916687"
         inkscape:connector-curvature="0" />
      <path
         id="path1017"
         d="m -90.27199,159.45987 c -4.472158,-1.71834 -7.90805,-5.10658 -7.90805,-7.79838 0,-4.42363 5.318996,-6.46875 8.372003,-3.21897 3.061383,3.25869 7.708462,3.38682 11.755918,0.32412 2.282526,-1.72719 5.131085,-2.29796 6.649709,-1.33243 1.246501,0.79252 2.42405,3.67653 2.129745,5.21609 -0.410525,2.14753 -4.254145,5.35288 -8.180204,6.82181 -4.244953,1.58824 -8.664666,1.58402 -12.819121,-0.0122 z"
         style="fill:#464d57;fill-opacity:1;stroke-width:0.59916687"
         inkscape:connector-curvature="0" />
      <path
         id="path1015"
         d="m -125.50225,156.28732 c -2.39571,-1.03655 -2.63613,-1.77272 -2.63613,-8.07156 0,-4.70162 0.14225,-5.3727 1.38674,-6.54183 1.72412,-1.61974 4.59391,-1.68937 6.48584,-0.15738 1.30805,1.05919 1.4145,1.57648 1.4145,6.87377 0,4.94482 -0.16391,5.88601 -1.19833,6.88075 -1.70549,1.64005 -3.3168,1.94037 -5.45262,1.01625 z"
         style="fill:#464d57;fill-opacity:1;stroke-width:0.59916687"
         inkscape:connector-curvature="0" />
      <path
         id="path1005"
         d="m -46.040712,156.37822 c -2.126971,-1.07619 -2.988705,-3.19676 -2.998813,-7.37953 -0.01521,-6.29343 1.412686,-8.62754 5.2779,-8.62754 3.19556,0 4.404973,1.62844 4.745653,6.38988 0.378152,5.28521 -0.527722,8.29109 -2.862532,9.49846 -2.069223,1.07004 -2.270704,1.07579 -4.162208,0.11873 z"
         style="fill:#464d57;fill-opacity:1;stroke-width:0.59916687"
         inkscape:connector-curvature="0" />
    </g>
  </g>
</svg>
