<?xml version="1.0" encoding="UTF-8" standalone="no"?>
<!-- Created with Inkscape (http://www.inkscape.org/) -->

<svg
   xmlns:dc="http://purl.org/dc/elements/1.1/"
   xmlns:cc="http://creativecommons.org/ns#"
   xmlns:rdf="http://www.w3.org/1999/02/22-rdf-syntax-ns#"
   xmlns:svg="http://www.w3.org/2000/svg"
   xmlns="http://www.w3.org/2000/svg"
   xmlns:sodipodi="http://sodipodi.sourceforge.net/DTD/sodipodi-0.dtd"
   xmlns:inkscape="http://www.inkscape.org/namespaces/inkscape"
   width="150"
   height="150"
   viewBox="0 0 39.687501 39.687501"
   version="1.1"
   id="svg8"
   inkscape:version="0.92.2 (5c3e80d, 2017-08-06)"
   sodipodi:docname="darkcloud+.svg">
  <defs
     id="defs2">
    <mask
       maskUnits="userSpaceOnUse"
       id="mask1086">
      <rect
         style="fill:#b3b3b3;fill-opacity:1;stroke:none;stroke-width:15.10569286;stroke-linejoin:round;stroke-miterlimit:4;stroke-dasharray:none;stroke-opacity:1"
         id="rect1088"
         width="223.38394"
         height="98.651787"
         x="85.04464"
         y="128.42262" />
    </mask>
  </defs>
  <sodipodi:namedview
     id="base"
     pagecolor="#ffffff"
     bordercolor="#666666"
     borderopacity="1.0"
     inkscape:pageopacity="0.0"
     inkscape:pageshadow="2"
     inkscape:zoom="1.4"
     inkscape:cx="97.997448"
     inkscape:cy="271.27919"
     inkscape:document-units="px"
     inkscape:current-layer="layer1"
     showgrid="false"
     showguides="true"
     inkscape:window-width="2400"
     inkscape:window-height="1271"
     inkscape:window-x="-9"
     inkscape:window-y="-9"
     inkscape:window-maximized="1"
     units="px" />
  <metadata
     id="metadata5">
    <rdf:RDF>
      <cc:Work
         rdf:about="">
        <dc:format>image/svg+xml</dc:format>
        <dc:type
           rdf:resource="http://purl.org/dc/dcmitype/StillImage" />
        <dc:title></dc:title>
      </cc:Work>
    </rdf:RDF>
  </metadata>
  <g
     inkscape:label="Layer 1"
     inkscape:groupmode="layer"
     id="layer1"
     transform="translate(0,-257.31251)">
    <g
       id="g1265"
       transform="matrix(0.38222895,0,0,0.37567854,3.7891615,184.50913)">
      <path
         sodipodi:nodetypes="ccccscccccccccssccccscscccc"
         inkscape:connector-curvature="0"
         id="path1180"
         d="m 32.799073,299.26948 c -0.54352,-0.043 -5.218387,-0.89052 -5.16199,-0.9821 0.0564,-0.0916 3.7527,0.5184 2.9874,0.45402 -1.444567,-0.12153 -6.354539,-1.07889 -7.212835,-1.40636 -0.269843,-0.10296 -0.490623,-0.27502 -0.490623,-0.38236 0,-0.10734 0.488982,-0.55344 1.086626,-0.99133 2.132232,-1.56231 5.87715,-5.01811 7.709873,-7.11466 1.738749,-1.98905 4.365563,-5.34766 4.820431,-6.16335 0.185153,-0.33201 0.878572,-0.3558 9.383917,-0.32176 5.051194,0.0202 12.105036,-0.0242 15.675204,-0.0988 l 6.491214,-0.13549 0.398202,-0.67729 c 0.222971,-0.37924 0.690937,-0.7836 1.063426,-0.91887 2.714248,-0.98577 3.6124,-2.20422 4.486302,-4.49928 0.587205,-1.54214 1.243719,-1.74232 2.359587,-1.74232 0.794798,0 1.482994,0.65823 1.718308,1.6435 0.438724,1.83694 2.620467,4.16919 3.902384,4.17158 0.63325,0.001 1.940809,0.98382 2.087016,1.56841 0.260906,1.04321 -0.215784,1.59153 -2.248665,2.58654 -2.166948,1.06063 -3.103798,2.06882 -3.862265,4.15636 -0.445925,1.22731 -0.96466,1.65949 -1.99184,1.65949 -0.719392,0 -1.243248,-0.61496 -1.61898,-1.90053 -0.337169,-1.15362 -1.238748,-2.66907 -1.587901,-2.66907 -0.110298,0 -1.229314,0.83305 -2.486708,1.85121 -8.459649,6.85015 -17.74959,10.64065 -29.068716,11.86068 -1.626406,0.17531 -6.495722,0.20515 -8.439367,0.0518 z"
         style="fill:#f6d78f;fill-opacity:1;stroke-width:0.20734234" />
      <path
         sodipodi:nodetypes="cccsccsccccsccscscscc"
         inkscape:connector-curvature="0"
         id="path1172"
         d="m 87.272736,248.68165 c -0.510146,-0.51817 -1.539929,-1.34936 -2.288403,-1.84708 -1.778596,-1.18276 -5.764366,-2.88029 -8.037148,-3.42301 -0.679333,-0.16222 -0.639719,-0.0719 -1.56414,-3.56716 -0.567628,-2.14621 -2.615859,-6.56763 -4.099947,-8.85035 -1.446768,-2.22533 -3.919166,-5.01785 -5.540744,-6.25816 -0.722264,-0.55244 -1.500976,-1.2 -1.730473,-1.43902 -1.166286,-1.21468 -5.452208,-3.61253 -8.089748,-4.52601 -2.309607,-0.7999 -5.44399,-1.58737 -7.319972,-1.83905 -1.699082,-0.22794 -8.530459,0.24189 -9.402217,0.50931 -0.387554,0.1189 -0.43058,-0.4968 -1.502029,-2.33946 -2.721447,-4.68032 -4.900664,-7.62228 -8.380715,-11.31402 -2.269561,-2.40762 -4.893498,-4.78483 -6.886985,-6.2394 -0.606318,-0.4424 -1.068083,-0.91036 -1.026147,-1.03989 2.615071,-1.94466 10.253206,-2.80154 13.069552,-2.69662 1.186802,0.0442 2.73355,0.22363 5.441039,0.48381 9.747289,1.14657 17.128583,3.74056 25.089688,8.81723 3.536539,2.25519 9.840353,8.08979 12.383981,11.4622 6.495033,8.61127 10.167684,17.73584 11.056815,27.47025 0.331939,3.63415 0.317088,7.39306 -0.02966,7.50752 -0.118362,0.0391 -0.632599,-0.35292 -1.142747,-0.87109 z"
         style="fill:#f6d78f;fill-opacity:1;stroke-width:0.20830615" />
      <path
         sodipodi:nodetypes="csssscccssscscccscsccccsscsccsscscccccssccccscc"
         inkscape:connector-curvature="0"
         id="path1192"
         d="m 16.758398,282.82233 c -6.791226,-0.14457 -8.3535451,-0.37814 -11.280216,-1.68638 -4.67687354,-2.09059 -8.4553558,-5.12657 -10.7609886,-8.64636 -2.0653051,-3.15291 -2.808216,-4.80266 -3.779926,-8.39391 -0.4918783,-1.81789 -0.5600173,-2.44758 -0.5599267,-5.17441 5.67e-5,-1.70756 0.1259901,-3.8032 0.279852,-4.65697 0.6278676,-3.48403 2.2853404,-7.37299 4.3445617,-10.19371 l 1.0200074,-1.39721 0.3307807,0.97079 c 0.4658276,1.36713 1.0497506,1.92711 2.0094892,1.92711 1.02910712,0 1.70514435,-0.63254 2.14166968,-2.00389 0.64380442,-2.02252 2.17316412,-3.45111 4.48375622,-4.18831 1.0461148,-0.33376 1.5161985,-0.9214 1.5161985,-1.89536 0,-0.55836 -0.1412693,-0.9516 -0.4543233,-1.26466 l -0.4543232,-0.45432 0.7694921,-0.27243 c 2.4421006,-0.86459 6.4075733,-1.51171 9.2636353,-1.51171 h 1.10262 l 1.745515,-2.63895 c 3.240363,-4.89893 8.021219,-9.23439 12.921102,-11.71735 1.142339,-0.57887 4.301294,-1.60658 6.162157,-2.00475 0.683022,-0.14614 1.325661,-0.31095 1.428086,-0.36625 0.196335,-0.10599 0.375852,-0.12638 3.883132,-0.44122 8.758985,-0.78626 18.126499,2.62483 24.398758,8.88456 2.294444,2.28986 3.395888,3.68547 5.127867,6.49741 1.577026,2.56037 3.236306,6.78432 3.669471,9.34119 0.183762,1.08472 0.62267,1.7593 1.144656,1.7593 0.231215,0 1.26594,0.23774 2.299386,0.52831 3.020954,0.84937 5.474871,2.2294 7.945435,4.46832 0.742946,0.67329 1.197036,1.0669 1.281557,1.16177 0.0902,0.10125 0,0 0.0902,0.10125 0.126857,0.14238 0.829463,0.9937 1.3885,1.70507 2.275795,2.89589 3.499293,6.54048 3.683877,10.97363 0.177147,4.25455 -0.961104,8.48921 -3.180754,11.83344 -1.588646,2.39352 -4.460071,5.05965 -6.767755,6.28387 -0.522131,0.27699 -0.975261,0.60864 -1.006955,0.73699 -0.03708,0.15016 -0.574277,0.0242 -1.50646,-0.35317 -1.848717,-0.74843 -3.15704,-2.05555 -3.810099,-3.80658 -0.608347,-1.63115 -1.126318,-2.17248 -2.078755,-2.17248 -1.056994,0 -1.572713,0.44998 -2.077696,1.81284 -0.874757,2.36081 -2.073877,3.53744 -4.388561,4.30626 -0.776207,0.25781 -1.134814,0.52709 -1.524907,1.14504 l -0.510038,0.80795 -15.675868,-0.006 c -8.62173,-0.003 -18.609761,0.0238 -22.195628,0.0604 -3.585867,0.0366 -9.174231,0.0101 -12.418587,-0.059 z"
         style="fill:#c1c4c7;fill-opacity:1;stroke-width:0.20697644" />
      <path
         id="path1178"
         d="m 40.08491,256.72808 c -1.819106,-0.49062 -3.715343,-2.10155 -3.715343,-3.15634 0,-0.67229 1.047485,-1.73617 1.709412,-1.73617 0.274666,0 0.947702,0.34927 1.495633,0.77616 0.926453,0.72179 1.094071,0.77616 2.392912,0.77616 1.252947,0 1.479048,-0.0662 2.197122,-0.64325 1.073553,-0.86274 1.577011,-0.99666 2.313982,-0.61556 1.503088,0.77728 1.124697,2.51898 -0.815113,3.75193 -1.617622,1.02816 -3.722254,1.34773 -5.578605,0.84707 z"
         style="fill:#464d57;fill-opacity:1;stroke-width:0.20697644"
         inkscape:connector-curvature="0" />
      <path
         id="path1176"
         d="m 25.832545,255.33359 c -0.88785,-0.35156 -1.040065,-0.77869 -1.047077,-2.93824 -0.0061,-1.88107 0.03009,-2.06411 0.501452,-2.53547 0.32024,-0.32024 0.744511,-0.50803 1.147778,-0.50803 0.403266,0 0.827537,0.18779 1.147777,0.50803 0.468013,0.46802 0.508034,0.66276 0.508034,2.47218 0,1.74712 -0.05145,2.02074 -0.465697,2.4764 -0.565929,0.62251 -1.1294,0.78761 -1.792267,0.52513 z"
         style="fill:#464d57;fill-opacity:1;stroke-width:0.20697644"
         inkscape:connector-curvature="0" />
      <path
         id="path1174"
         d="m 56.826784,255.32459 c -0.881383,-0.31953 -1.262931,-1.3908 -1.17613,-3.30221 0.06538,-1.4396 0.138546,-1.69359 0.629236,-2.18428 0.706568,-0.70657 1.634667,-0.73461 2.34133,-0.0707 0.481435,0.45228 0.515756,0.61909 0.515756,2.50667 0,1.80728 -0.04948,2.07658 -0.465697,2.5344 -0.568802,0.62567 -1.118271,0.77943 -1.844495,0.51615 z"
         style="fill:#464d57;fill-opacity:1;stroke-width:0.20697644"
         inkscape:connector-curvature="0" />
      <path
         inkscape:connector-curvature="0"
         id="path1170"
         d="m -2.9438523,245.5731 c -0.6147186,-0.51725 -1.1361689,-1.7572 -1.1361689,-2.70168 0,-0.7952 -2.0855853,-2.68603 -3.5756451,-3.24175 -1.7009355,-0.63437 -2.2663481,-1.17641 -2.257562,-2.16424 0.0097,-1.0898 0.3538433,-1.43236 2.1766494,-2.16655 2.0231564,-0.81491 3.452607,-2.24783 4.0116949,-4.02146 0.4284545,-1.35921 0.9243033,-1.98061 1.7447811,-2.18653 0.9781682,-0.2455 1.61085844,0.31028 2.55052073,2.24049 1.27550677,2.62008 2.14794467,3.39526 4.79601697,4.26133 1.3747428,0.44963 1.6438086,0.75551 1.6438086,1.86872 0,1.11878 -0.6229843,1.79989 -2.0908286,2.28591 -2.2357796,0.74029 -3.3601184,1.86424 -4.2413259,4.23986 -0.2527347,0.68133 -0.70981661,1.43568 -1.01573763,1.67632 -0.76117027,0.59874 -1.83131477,0.56161 -2.60620357,-0.0904 z"
         style="fill:#f6d78f;fill-opacity:1;stroke-width:0.21629949" />
      <path
         id="path1162"
         d="m 8.6359066,209.92426 c -0.1410638,-0.16997 -0.5104809,-0.84523 -0.820927,-1.50058 -0.6676012,-1.40929 -1.9309937,-2.62121 -3.0966079,-2.97044 -1.1048945,-0.33103 -1.5106027,-0.80498 -1.4278496,-1.66803 0.060131,-0.62711 0.1722479,-0.73289 1.2046723,-1.13658 1.7141009,-0.67024 2.9952925,-1.90429 3.546489,-3.416 0.78799,-2.16114 2.1166496,-2.16513 2.9149326,-0.009 0.518747,1.40128 1.535227,2.41299 3.213326,3.19827 2.187718,1.02376 2.292159,2.27228 0.246902,2.95161 -1.415464,0.47014 -2.904153,1.91451 -3.408716,3.30723 -0.206206,0.56919 -0.463426,1.15131 -0.5716,1.2936 -0.272704,0.35873 -1.4893613,0.32473 -1.8006214,-0.0503 z"
         style="fill:#f6d78f;fill-opacity:1;stroke-width:0.20697644"
         inkscape:connector-curvature="0" />
      <path
         sodipodi:nodetypes="cscccscccccccccc"
         inkscape:connector-curvature="0"
         id="path1231"
         d="m 32.799073,299.26948 c -0.984856,-0.0882 -7.879102,-1.47739 -7.309863,-1.50145 1.111434,-0.047 8.638426,-0.47831 10.931808,-1.12919 6.97492,-1.97956 20.051803,-6.38329 26.073797,-11.93555 l 1.994123,-1.91154 1.317619,0.008 c 1.236022,0.008 2.281733,-0.0802 1.547192,0.59593 0.185914,0.56752 0.958377,1.15931 1.873178,1.43506 0.455348,0.13725 1.135458,0.42935 1.511354,0.6491 1.000268,0.38945 1.57606,0.7658 1.2125,1.15893 -0.76456,0.82675 -2.947417,2.30275 -5.458996,3.92778 -6.455063,4.17652 -14.829106,7.56624 -21.700486,8.14698 -0.943144,0.0797 0.899723,-0.19003 1.029865,-0.11213 -2.922573,0.49184 -5.455176,0.73673 -6.937288,0.73682 -2.743512,0.14291 -3.860485,0.13028 -6.084803,-0.0689 z"
         style="fill:#e9c16e;fill-opacity:1;stroke-width:0.20372857" />
      <path
         id="path1170-1"
         d="m 74.050801,292.06734 c -0.684661,-0.57611 -1.265443,-1.95714 -1.265443,-3.00908 0,-0.88568 -2.32288,-2.99165 -3.982478,-3.61061 -1.894467,-0.70654 -2.524211,-1.31025 -2.514426,-2.41048 0.01081,-1.2138 0.394104,-1.59533 2.424307,-2.41306 2.25335,-0.90762 3.845442,-2.50358 4.468142,-4.479 0.477204,-1.51387 1.029471,-2.20597 1.943301,-2.43533 1.089464,-0.27343 1.794142,0.34559 2.840719,2.49542 1.420633,2.91819 2.392337,3.78157 5.341703,4.74619 1.531161,0.50078 1.830841,0.84145 1.830841,2.08133 0,1.24607 -0.693869,2.00467 -2.328722,2.54599 -2.490164,0.82452 -3.74243,2.07636 -4.723901,4.72227 -0.281491,0.75886 -0.790579,1.59904 -1.131308,1.86705 -0.847776,0.66687 -2.039681,0.62551 -2.902735,-0.10068 z"
         style="fill:#f6d78f;fill-opacity:1;stroke-width:0.24090989"
         inkscape:connector-curvature="0" />
      <path
         sodipodi:nodetypes="cccscccsccccccscccc"
         inkscape:connector-curvature="0"
         id="path1248"
         d="m 87.801903,248.68165 c -1.462144,-1.47889 -3.500655,-2.80737 -5.913559,-3.85383 -1.29304,-0.56078 -2.656707,-1.07587 -3.030373,-1.14465 -0.629558,-0.11587 -0.687698,-0.19441 -0.792561,-1.0705 -1.061831,-8.87121 -3.64258,-16.50587 -7.643484,-22.61182 -0.62319,-0.95108 -1.399147,-2.1412 -1.724343,-2.64472 -2.615069,-4.04904 -8.929087,-10.20674 -13.779247,-13.43812 -1.67045,-1.11293 -5.687496,-3.31884 -7.863147,-4.31795 -3.719127,-1.70791 -9.086226,-3.43738 -13.679006,-4.01479 l -4.276816,-0.5052 -4.214735,0.005 c 2.691572,-0.82537 5.68785,-1.25896 9.003044,-1.28253 6.707999,-0.12511 11.124316,0.84172 16.766172,2.42883 4.864455,1.36841 9.138041,3.59703 13.956762,6.54635 1.932031,1.18252 2.586447,1.90596 5.384624,4.22637 4.210534,3.49162 7.323917,6.97808 10.459929,11.53734 5.636487,8.1945 8.472168,19.09072 8.23456,28.63414 l -0.05838,2.34457 z"
         style="fill:#e9c16e;fill-opacity:1;stroke-width:0.2053919" />
    </g>
  </g>
</svg>
