<?xml version="1.0" encoding="UTF-8" standalone="no"?>
<!-- Created with Inkscape (http://www.inkscape.org/) -->

<svg
   xmlns:dc="http://purl.org/dc/elements/1.1/"
   xmlns:cc="http://creativecommons.org/ns#"
   xmlns:rdf="http://www.w3.org/1999/02/22-rdf-syntax-ns#"
   xmlns:svg="http://www.w3.org/2000/svg"
   xmlns="http://www.w3.org/2000/svg"
   xmlns:sodipodi="http://sodipodi.sourceforge.net/DTD/sodipodi-0.dtd"
   xmlns:inkscape="http://www.inkscape.org/namespaces/inkscape"
   width="150"
   height="150"
   viewBox="0 0 39.687501 39.687501"
   version="1.1"
   id="svg8"
   inkscape:version="0.92.2 (5c3e80d, 2017-08-06)"
   sodipodi:docname="cloud.svg">
  <defs
     id="defs2">
    <mask
       maskUnits="userSpaceOnUse"
       id="mask1086">
      <rect
         style="fill:#b3b3b3;fill-opacity:1;stroke:none;stroke-width:15.10569286;stroke-linejoin:round;stroke-miterlimit:4;stroke-dasharray:none;stroke-opacity:1"
         id="rect1088"
         width="223.38394"
         height="98.651787"
         x="85.04464"
         y="128.42262" />
    </mask>
  </defs>
  <sodipodi:namedview
     id="base"
     pagecolor="#ffffff"
     bordercolor="#666666"
     borderopacity="1.0"
     inkscape:pageopacity="0.0"
     inkscape:pageshadow="2"
     inkscape:zoom="0.7"
     inkscape:cx="-182.15405"
     inkscape:cy="-3.0895818"
     inkscape:document-units="px"
     inkscape:current-layer="layer1"
     showgrid="false"
     showguides="true"
     inkscape:window-width="2400"
     inkscape:window-height="1271"
     inkscape:window-x="-9"
     inkscape:window-y="-9"
     inkscape:window-maximized="1"
     units="px" />
  <metadata
     id="metadata5">
    <rdf:RDF>
      <cc:Work
         rdf:about="">
        <dc:format>image/svg+xml</dc:format>
        <dc:type
           rdf:resource="http://purl.org/dc/dcmitype/StillImage" />
        <dc:title></dc:title>
      </cc:Work>
    </rdf:RDF>
  </metadata>
  <g
     inkscape:label="Layer 1"
     inkscape:groupmode="layer"
     id="layer1"
     transform="translate(0,-257.31251)">
    <g
       id="g1315"
       transform="matrix(0.21972353,0,0,0.2195763,32.723153,228.6566)">
      <path
         id="path1280"
         d="m -111.85576,278.30104 c -8.62462,-1.29533 -16.12491,-4.69731 -22.69939,-10.296 -6.92503,-5.89722 -12.3059,-15.60151 -13.82305,-24.92963 -2.15639,-13.25841 2.02899,-26.79878 11.26175,-36.4335 3.40821,-3.5566 6.38118,-5.79256 10.7968,-8.12022 6.14706,-3.24038 11.35879,-4.59429 18.87361,-4.90303 l 4.93889,-0.2029 1.51046,-2.70182 c 5.108663,-9.1381 14.285472,-17.5966 24.093115,-22.20726 7.288062,-3.42618 13.453884,-4.92281 21.573806,-5.23662 13.535457,-0.52311 26.345832,3.75225 36.865416,12.30352 9.6375087,7.83424 16.4091952,18.88082 19.01892552,31.02535 l 0.58772428,2.735 1.7975053,0.24434 c 2.5708859,0.34946 7.6603589,2.07453 10.4584049,3.54486 3.471472,1.82421 7.918867,5.5596 10.63211,8.92996 8.703755,10.81173 10.125704,25.71995 3.628401,38.04146 -4.182079,7.93091 -10.858124,13.63533 -19.3547917,16.53791 -5.7693319,1.97088 -3.3689717,1.90117 -63.6660133,1.84908 -30.58645,-0.0264 -56.008603,-0.10765 -56.493673,-0.1805 z"
         style="fill:#c1c4c7;fill-opacity:1;stroke-width:0.35277781"
         inkscape:connector-curvature="0" />
      <path
         id="path1302"
         d="m -109.03354,278.28373 c -8.0169,-0.47653 -16.11149,-3.45032 -22.72404,-8.34834 -8.43831,-6.2504 -14.43154,-15.91026 -16.27426,-26.23079 -0.64485,-3.61159 -0.74171,-10.89591 -0.18966,-14.26345 3.39181,-20.69041 20.82611,-35.57529 41.67136,-35.57776 l 4.07091,-4.8e-4 1.28714,-2.38305 c 2.058458,-3.8111 4.63019,-7.23871 8.308933,-11.07416 4.539619,-4.733 9.549939,-8.51087 14.922141,-11.25156 l 1.505257,-0.76793 -1.313021,1.53765 c -6.95094,8.14009 -9.730702,11.88152 -13.723371,18.47099 -7.549233,12.4592 -11.297939,21.41772 -13.297019,31.77672 -1.2318,6.38304 -1.46212,10.82017 -0.90269,17.39073 0.85787,10.07591 2.46585,15.29702 7.673475,24.91589 2.574149,4.75463 6.198087,9.63336 10.285265,13.84653 l 2.138924,2.20486 -10.749532,-0.0653 c -5.912242,-0.0359 -11.622652,-0.11715 -12.689812,-0.18059 z"
         style="fill:#adb0b3;fill-opacity:1;stroke-width:0.35277781"
         inkscape:connector-curvature="0" />
      <path
         id="path1300"
         d="m -61.055755,232.88348 c -2.572209,-0.57191 -4.582396,-1.65613 -5.942429,-3.20512 -1.411446,-1.60755 -1.4227,-2.75182 -0.04066,-4.13386 0.897703,-0.8977 1.254919,-1.03598 2.192101,-0.84854 0.615798,0.12316 1.522251,0.59858 2.014337,1.0565 1.383407,1.28734 2.278856,1.62445 4.3111,1.62302 1.854387,-0.001 2.043472,-0.0815 5.194008,-2.20169 0.503029,-0.33852 1.204626,-0.61634 1.559098,-0.61736 0.955442,-0.003 2.706892,1.91075 2.706892,2.95734 0,2.04966 -3.774165,4.78342 -7.56132,5.47693 -1.151294,0.21083 -2.183169,0.37002 -2.293056,0.35375 -0.109886,-0.0163 -1.072917,-0.22369 -2.140071,-0.46097 z"
         style="fill:#5d636c;fill-opacity:1;stroke-width:0.35277781"
         inkscape:connector-curvature="0" />
      <path
         id="path1298"
         d="m -87.080541,230.31569 c -1.381654,-0.55591 -2.096841,-6.48481 -1.035385,-8.58334 0.673657,-1.33184 2.165435,-1.93245 3.463897,-1.39461 1.503532,0.62279 1.72405,1.28668 1.72405,5.19048 0,3.19138 -0.06975,3.55501 -0.816487,4.25653 -0.769877,0.72326 -2.266191,0.9614 -3.336075,0.53094 z"
         style="fill:#5d636c;fill-opacity:1;stroke-width:0.35277781"
         inkscape:connector-curvature="0" />
      <path
         id="path1278"
         d="m -33.477593,229.73531 c -0.677622,-0.7213 -0.767048,-1.21148 -0.767048,-4.20448 0,-3.97555 0.110554,-4.36066 1.450816,-5.05373 1.272601,-0.65809 2.574689,-0.35497 3.493654,0.81331 0.57216,0.72738 0.699975,1.43193 0.699975,3.85843 0,3.08954 -0.519056,4.76775 -1.603305,5.18382 -1.171931,0.44971 -2.521796,0.20343 -3.274092,-0.59735 z"
         style="fill:#5d636c;fill-opacity:1;stroke-width:0.35277781"
         inkscape:connector-curvature="0" />
    </g>
  </g>
</svg>
