<?xml version="1.0" encoding="UTF-8" standalone="no"?>
<!-- Created with Inkscape (http://www.inkscape.org/) -->

<svg
   xmlns:dc="http://purl.org/dc/elements/1.1/"
   xmlns:cc="http://creativecommons.org/ns#"
   xmlns:rdf="http://www.w3.org/1999/02/22-rdf-syntax-ns#"
   xmlns:svg="http://www.w3.org/2000/svg"
   xmlns="http://www.w3.org/2000/svg"
   xmlns:sodipodi="http://sodipodi.sourceforge.net/DTD/sodipodi-0.dtd"
   xmlns:inkscape="http://www.inkscape.org/namespaces/inkscape"
   width="150"
   height="150"
   viewBox="0 0 39.687501 39.687501"
   version="1.1"
   id="svg8"
   inkscape:version="0.92.2 (5c3e80d, 2017-08-06)"
   sodipodi:docname="rain.svg">
  <defs
     id="defs2">
    <mask
       maskUnits="userSpaceOnUse"
       id="mask1086">
      <rect
         style="fill:#b3b3b3;fill-opacity:1;stroke:none;stroke-width:15.10569286;stroke-linejoin:round;stroke-miterlimit:4;stroke-dasharray:none;stroke-opacity:1"
         id="rect1088"
         width="223.38394"
         height="98.651787"
         x="85.04464"
         y="128.42262" />
    </mask>
  </defs>
  <sodipodi:namedview
     id="base"
     pagecolor="#ffffff"
     bordercolor="#666666"
     borderopacity="1.0"
     inkscape:pageopacity="0.0"
     inkscape:pageshadow="2"
     inkscape:zoom="0.98994949"
     inkscape:cx="102.50069"
     inkscape:cy="-59.074521"
     inkscape:document-units="px"
     inkscape:current-layer="layer1"
     showgrid="false"
     showguides="true"
     inkscape:window-width="2400"
     inkscape:window-height="1271"
     inkscape:window-x="-9"
     inkscape:window-y="-9"
     inkscape:window-maximized="1"
     units="px" />
  <metadata
     id="metadata5">
    <rdf:RDF>
      <cc:Work
         rdf:about="">
        <dc:format>image/svg+xml</dc:format>
        <dc:type
           rdf:resource="http://purl.org/dc/dcmitype/StillImage" />
        <dc:title></dc:title>
      </cc:Work>
    </rdf:RDF>
  </metadata>
  <g
     inkscape:label="Layer 1"
     inkscape:groupmode="layer"
     id="layer1"
     transform="translate(0,-257.31251)">
    <g
       id="g1428"
       transform="matrix(0.21998267,0,0,0.22175614,21.979179,212.28534)">
      <path
         id="path1415"
         d="m -49.05695,381.61863 c -1.676887,-0.53732 -4.189388,-2.88717 -4.681566,-4.37849 -0.546752,-1.65667 -0.252797,-5.26935 0.556211,-6.83576 1.017785,-1.97063 4.50371,-5.12073 6.9415,-6.27277 2.432209,-1.1494 4.920555,-2.03722 6.251438,-2.23046 1.0076,-0.1463 1.241333,0.47741 1.783471,4.75909 1.207608,9.53739 -4.257509,17.07116 -10.851054,14.95839 z"
         style="fill:#bbe8ee;fill-opacity:1;stroke-width:0.35277781"
         inkscape:connector-curvature="0" />
      <path
         id="path1413"
         d="m -3.360613,381.55863 c -4.5230419,-1.61412 -6.405803,-6.2049 -4.3281039,-10.55333 0.9400928,-1.96752 3.6879321,-4.81379 5.9756786,-6.18971 1.95942324,-1.17846 7.5706119,-3.27858 8.0220581,-3.00244 0.5855547,0.35816 1.4423321,6.9979 1.216519,9.42758 -0.4688664,5.04482 -3.5124781,9.53004 -7.07583036,10.4273 -1.92861514,0.48564 -2.16167074,0.47894 -3.81032144,-0.1094 z"
         style="fill:#bbe8ee;fill-opacity:1;stroke-width:0.35277781"
         inkscape:connector-curvature="0" />
      <path
         id="path1411"
         d="m 42.147725,381.57723 c -5.570729,-2.06634 -6.844969,-7.90648 -2.8639,-13.12593 1.933611,-2.53509 7.701122,-5.83145 11.650403,-6.65865 1.103764,-0.23119 1.116256,-0.21777 1.526847,1.63962 2.120053,9.59055 -1.181785,17.73551 -7.484333,18.46232 -0.857448,0.0989 -2.075092,-0.0377 -2.829017,-0.31736 z"
         style="fill:#bbe8ee;fill-opacity:1;stroke-width:0.35277781"
         inkscape:connector-curvature="0" />
      <path
         id="path1409"
         d="m -67.052205,349.20756 c -1.782222,-0.51387 -4.512323,-3.35662 -5.00702,-5.21362 -1.083291,-4.06645 1.849635,-8.9679 7.222438,-12.06999 1.711873,-0.98838 7.193564,-2.94003 7.472989,-2.66061 0.533255,0.53326 1.235706,6.46186 1.084354,9.15183 -0.215081,3.82271 -1.56306,6.88579 -3.957962,8.99386 -2.235871,1.96809 -4.319528,2.518 -6.814799,1.79853 z"
         style="fill:#bbe8ee;fill-opacity:1;stroke-width:0.35277781"
         inkscape:connector-curvature="0" />
      <path
         id="path1407"
         d="m -20.734204,349.27646 c -3.34142,-0.81346 -6.173612,-3.94243 -6.173612,-6.82052 0,-5.03262 4.982574,-10.30407 11.764371,-12.44643 1.553122,-0.49064 3.015785,-0.81841 3.250357,-0.7284 0.658365,0.25264 1.33936,5.78368 1.12841,9.16495 -0.332067,5.32258 -2.993546,9.52204 -6.739849,10.63457 -0.973631,0.28914 -1.860486,0.50946 -1.970789,0.4896 -0.110307,-0.0199 -0.676805,-0.15206 -1.258888,-0.29377 z"
         style="fill:#bbe8ee;fill-opacity:1;stroke-width:0.35277781"
         inkscape:connector-curvature="0" />
      <path
         id="path1405"
         d="m 24.244967,349.06426 c -5.646092,-1.75314 -7.002989,-7.7585 -2.95281,-13.06856 1.892272,-2.4809 7.464785,-5.69761 11.49324,-6.63443 0.881719,-0.20504 0.990106,-0.10593 1.400051,1.28016 0.257969,0.87223 0.448984,3.50001 0.455405,6.2649 0.01051,4.5271 -0.03973,4.8725 -1.016473,6.9879 -1.245157,2.69673 -3.439908,4.75966 -5.658002,5.31818 -1.857442,0.46772 -1.720438,0.47317 -3.721411,-0.14815 z"
         style="fill:#bbe8ee;fill-opacity:1;stroke-width:0.35277781"
         inkscape:connector-curvature="0" />
      <path
         id="path1384"
         d="m -64.944879,317.68113 c -5.687655,-1.03846 -11.322544,-3.37088 -16.432741,-6.80192 -7.733209,-5.19216 -13.323366,-12.61487 -16.550278,-21.97575 -2.820382,-8.1816 -2.619492,-19.39588 0.498794,-27.84436 1.081969,-2.93141 4.382737,-9.00675 6.108694,-11.24356 8.004527,-10.37374 20.737024,-16.59723 34.001916,-16.61972 l 3.63238,-0.006 0.600953,-1.10578 c 0.967956,-1.78108 4.463193,-7.0636 5.687378,-8.59561 0.62017,-0.77611 2.428177,-2.73938 4.017801,-4.36281 7.420762,-7.57862 16.423261,-12.53378 27.470357,-15.12024 3.594626,-0.84161 4.701755,-0.93746 11.0504225,-0.95669 10.1034225,-0.0306 15.9323665,1.19886 24.0154735,5.06544 11.553889,5.52685 19.751204,13.51888 25.850704,25.20331 1.825456,3.4969 3.886733,9.47698 4.654053,13.5021 l 0.412612,2.16445 1.814139,0.23775 c 0.997772,0.13077 3.557292,0.81539 5.687816,1.52138 9.326612,3.09058 18.069466,11.75511 21.14111,20.95172 1.529369,4.579 1.766425,6.12124 1.781372,11.58943 0.01164,4.26212 -0.133699,6.05157 -0.659073,8.11389 -2.200099,8.63631 -6.954186,15.72244 -13.778031,20.53662 -3.759584,2.65237 -5.61079,3.49886 -11.653503,5.32872 -2.467889,0.74733 -2.505421,0.74784 -59.6194503,0.81859 -46.4127507,0.0575 -57.6352767,-0.0178 -59.7328987,-0.4008 z"
         style="fill:#c1c4c7;fill-opacity:1;stroke-width:0.35277781"
         inkscape:connector-curvature="0" />
      <path
         id="path1395"
         d="m -60.598097,317.96431 c -11.966798,-0.79868 -24.129999,-7.5221 -30.960914,-17.11418 -4.724595,-6.63435 -7.259712,-13.37334 -8.005362,-21.28029 -1.554907,-16.48836 6.553345,-32.14462 20.977324,-40.50522 6.211722,-3.60051 11.798061,-5.14754 19.576452,-5.4213 l 5.468056,-0.19245 1.510454,-2.70317 c 3.499753,-6.26329 9.739652,-13.21331 15.55493,-17.32513 3.07746,-2.17599 8.344733,-5.26614 8.99243,-5.27559 0.167767,-0.002 -0.625984,0.99105 -1.76389,2.20778 -7.297265,7.80271 -14.432292,18.63571 -20.267935,30.7725 -8.064254,16.77178 -9.590071,34.91057 -4.258406,50.62361 1.447843,4.26697 4.872116,10.99227 7.769007,15.2584 2.188542,3.22298 7.2593,9.2906 8.375344,10.02186 0.464757,0.30452 0.845012,0.69416 0.845012,0.86588 0,0.28721 -19.684035,0.34284 -23.812502,0.0673 z"
         style="fill:#adb0b3;fill-opacity:1;stroke-width:0.35277781"
         inkscape:connector-curvature="0" />
      <path
         id="path1393"
         d="m -11.762496,272.69765 c -3.282153,-0.55544 -7.384208,-3.49086 -7.384208,-5.28412 0,-1.7019 1.446558,-3.17933 3.112897,-3.17933 0.335644,0 1.455364,0.63501 2.488269,1.41112 1.683639,1.26506 2.088022,1.41111 3.9070886,1.41111 1.6015937,0 2.2816117,-0.18412 3.2277724,-0.87391 2.4158189,-1.76125 3.3402943,-2.09665 4.4790294,-1.62497 1.06374502,0.44062 1.83494554,1.64568 1.83494554,2.86724 0,1.13085 -2.31471284,3.34786 -4.49375434,4.30407 -2.3287357,1.02191 -4.8476011,1.36215 -7.1720396,0.96879 z"
         style="fill:#464d57;fill-opacity:1;stroke-width:0.35277781"
         inkscape:connector-curvature="0" />
      <path
         id="path1391"
         d="m -38.115934,269.99532 c -0.953128,-0.38349 -1.491883,-2.19685 -1.491883,-5.02144 0,-3.28434 0.408665,-4.41166 1.809651,-4.99196 1.192386,-0.49391 2.935345,0.0558 3.495499,1.10248 0.186613,0.34869 0.339295,2.20424 0.339295,4.12345 0,3.19138 -0.06975,3.55501 -0.816487,4.25653 -0.769877,0.72326 -2.266191,0.9614 -3.336075,0.53094 z"
         style="fill:#464d57;fill-opacity:1;stroke-width:0.35277781"
         inkscape:connector-curvature="0" />
      <path
         id="path1386"
         d="m 15.685223,269.79046 c -0.996199,-0.75649 -1.360784,-2.36057 -1.136827,-5.00175 0.311323,-3.67152 0.431183,-4.01599 1.609394,-4.62526 0.857229,-0.44329 1.309892,-0.47824 2.235969,-0.1726 1.546493,0.51039 1.970652,1.58292 1.970652,4.98303 0,2.94127 -0.537157,4.62929 -1.603305,5.03841 -0.936025,0.35918 -2.455016,0.24964 -3.075883,-0.22183 z"
         style="fill:#464d57;fill-opacity:1;stroke-width:0.35277781"
         inkscape:connector-curvature="0" />
    </g>
  </g>
</svg>
