<?xml version="1.0" encoding="UTF-8" standalone="no"?>
<!-- Created with Inkscape (http://www.inkscape.org/) -->

<svg
   xmlns:dc="http://purl.org/dc/elements/1.1/"
   xmlns:cc="http://creativecommons.org/ns#"
   xmlns:rdf="http://www.w3.org/1999/02/22-rdf-syntax-ns#"
   xmlns:svg="http://www.w3.org/2000/svg"
   xmlns="http://www.w3.org/2000/svg"
   xmlns:sodipodi="http://sodipodi.sourceforge.net/DTD/sodipodi-0.dtd"
   xmlns:inkscape="http://www.inkscape.org/namespaces/inkscape"
   width="150"
   height="150"
   viewBox="0 0 39.687501 39.687501"
   version="1.1"
   id="svg8"
   inkscape:version="0.92.2 (5c3e80d, 2017-08-06)"
   sodipodi:docname="storm.svg">
  <defs
     id="defs2">
    <mask
       maskUnits="userSpaceOnUse"
       id="mask1086">
      <rect
         style="fill:#b3b3b3;fill-opacity:1;stroke:none;stroke-width:15.10569286;stroke-linejoin:round;stroke-miterlimit:4;stroke-dasharray:none;stroke-opacity:1"
         id="rect1088"
         width="223.38394"
         height="98.651787"
         x="85.04464"
         y="128.42262" />
    </mask>
  </defs>
  <sodipodi:namedview
     id="base"
     pagecolor="#ffffff"
     bordercolor="#666666"
     borderopacity="1.0"
     inkscape:pageopacity="0.0"
     inkscape:pageshadow="2"
     inkscape:zoom="0.98994949"
     inkscape:cx="-272.58267"
     inkscape:cy="103.64018"
     inkscape:document-units="px"
     inkscape:current-layer="layer1"
     showgrid="false"
     showguides="true"
     inkscape:window-width="2400"
     inkscape:window-height="1271"
     inkscape:window-x="-9"
     inkscape:window-y="-9"
     inkscape:window-maximized="1"
     units="px" />
  <metadata
     id="metadata5">
    <rdf:RDF>
      <cc:Work
         rdf:about="">
        <dc:format>image/svg+xml</dc:format>
        <dc:type
           rdf:resource="http://purl.org/dc/dcmitype/StillImage" />
        <dc:title></dc:title>
      </cc:Work>
    </rdf:RDF>
  </metadata>
  <g
     inkscape:label="Layer 1"
     inkscape:groupmode="layer"
     id="layer1"
     transform="translate(0,-257.31251)">
    <g
       id="g1503"
       transform="matrix(1,0,0,1.0569496,-5e-8,-14.654098)">
      <path
         id="path1441"
         d="m 21.38829,261.02628 c -0.06631,0 -0.132319,0.001 -0.198328,0.003 -1.731968,-2.26096 -4.439834,-3.71653 -7.483797,-3.71653 -4.6369508,0 -8.4948186,3.37702 -9.3084197,7.83513 C 1.8791248,265.73343 1e-7,268.01647 1e-7,270.74513 c 0,3.17276 2.5392103,5.74501 5.6718923,5.74501 h 8.0342726 c 0.35578,0 0.706715,-0.0212 1.0522,-0.0598 l 6.629925,-0.37662 c 4.097074,0 7.418092,-3.36414 7.418092,-7.51372 0,-4.14959 -3.321018,-7.51372 -7.418092,-7.51372 z m 0,0"
         inkscape:connector-curvature="0"
         style="fill:#c1c4c7;stroke-width:0.07801268" />
      <path
         id="path1443"
         d="m 4.0692165,276.25613 c 0.5083871,0.15151 1.0458421,0.23401 1.6023731,0.23401 h 8.0342724 c 0.356083,0 0.706715,-0.0212 1.052503,-0.0598 l 6.629925,-0.37662 c 4.096771,0 7.418092,-3.36383 7.418092,-7.51372 0,-2.17508 -0.912916,-4.13395 -2.371161,-5.50579 -0.831163,-0.17328 -1.68231,-0.26223 -2.54133,-0.26223 -2.395687,0 -4.728091,0.68363 -6.744683,1.97665 -1.520922,0.97529 -2.813237,2.2628 -3.797006,3.77296 -4.4698106,0.28891 -8.1726488,3.48375 -9.2829855,7.73454 z m 0,0"
         inkscape:connector-curvature="0"
         style="fill:#adb0b3;stroke-width:0.07801268" />
      <path
         id="path1445"
         d="m 33.235617,286.90918 c 3.563252,0 6.451884,-2.92587 6.451884,-6.53505 0,-3.35095 -2.490158,-6.11213 -5.697932,-6.49059 -0.790892,-4.92521 -5.009385,-8.68499 -10.095678,-8.68499 -4.018045,0 -7.494698,2.34714 -9.167621,5.76127 -0.234967,-0.0212 -0.472355,-0.0328 -0.712771,-0.0328 -4.3571718,0 -7.8895388,3.5776 -7.8895388,7.99094 0,4.41334 3.532367,7.99124 7.8895388,7.99124 z m 0,0"
         inkscape:connector-curvature="0"
         style="fill:#d9d9d9;stroke-width:0.07801268" />
      <g
         transform="matrix(0.07751465,0,0,0.07851391,1e-7,257.27325)"
         id="g1453"
         style="fill:#464d57">
        <path
           id="path1447"
           d="m 230.65234,213.27344 c -4.26953,0 -7.72656,-3.46094 -7.72656,-7.72657 v -11.73828 c 0,-4.26562 3.45703,-7.72656 7.72656,-7.72656 4.26563,0 7.72657,3.46094 7.72657,7.72656 v 11.73828 c 0,4.26954 -3.46094,7.72657 -7.72657,7.72657 z m 0,0"
           inkscape:connector-curvature="0" />
        <path
           id="path1449"
           d="m 360.35547,213.27344 c -4.26953,0 -7.72656,-3.46094 -7.72656,-7.72657 v -11.73828 c 0,-4.26562 3.45703,-7.72656 7.72656,-7.72656 4.26562,0 7.72656,3.46094 7.72656,7.72656 v 11.73828 c 0,4.26954 -3.46094,7.72657 -7.72656,7.72657 z m 0,0"
           inkscape:connector-curvature="0" />
        <path
           id="path1451"
           d="m 295.50391,219.53906 c -8.46875,0 -16.42188,-3.54297 -21.82422,-9.72265 -2.8086,-3.21485 -2.48438,-8.09375 0.73047,-10.90235 3.21484,-2.80859 8.09375,-2.48047 10.90234,0.73047 2.46875,2.82422 6.17969,4.44141 10.19141,4.44141 4.00781,0 7.71875,-1.61719 10.1875,-4.44141 2.80468,-3.21094 7.6875,-3.53906 10.90234,-0.73047 3.21094,2.8086 3.54297,7.6875 0.73047,10.90235 -5.39844,6.17968 -13.35156,9.72265 -21.82031,9.72265 z m 0,0"
           inkscape:connector-curvature="0" />
      </g>
      <path
         id="path1455"
         d="m 17.743359,285.88747 h -3.810137 l 1.033269,-5.59034 c 0.06047,-0.29165 -0.318729,-0.45564 -0.485071,-0.20998 l -5.4901681,8.13894 c -0.204882,0.30376 0.01,0.71589 0.372995,0.71589 h 3.8101371 l -1.033047,5.59034 c -0.06047,0.29142 0.31873,0.45565 0.48485,0.20999 l 5.490168,-8.13916 c 0.204881,-0.30378 -0.0097,-0.71568 -0.372996,-0.71568 z m 0,0"
         inkscape:connector-curvature="0"
         style="fill:#e9c16e;stroke-width:0.05706674" />
      <path
         id="path1415"
         d="m 22.890158,294.23812 c -0.315556,-0.10193 -0.788368,-0.54769 -0.880987,-0.83059 -0.102893,-0.31428 -0.04756,-0.9996 0.104672,-1.29675 0.191525,-0.37382 0.847522,-0.9714 1.306271,-1.18994 0.457697,-0.21805 0.925958,-0.38647 1.176406,-0.42312 0.189618,-0.0277 0.233605,0.0906 0.335625,0.9028 0.227249,1.80924 -0.801192,3.23839 -2.041987,2.8376 z"
         style="fill:#bbe8ee;fill-opacity:1;stroke-width:0.06665378"
         inkscape:connector-curvature="0" />
      <path
         id="path1413"
         d="m 30.431095,294.22674 c -0.851158,-0.3062 -1.205466,-1.17707 -0.814477,-2.00197 0.176906,-0.37324 0.694005,-0.91317 1.124515,-1.17418 0.368731,-0.22355 1.424665,-0.62195 1.509619,-0.56956 0.11019,0.0679 0.271424,1.32749 0.228925,1.7884 -0.08823,0.95701 -0.660984,1.80786 -1.331549,1.97806 -0.362931,0.0921 -0.406789,0.0909 -0.717033,-0.0208 z"
         style="fill:#bbe8ee;fill-opacity:1;stroke-width:0.06665378"
         inkscape:connector-curvature="0" />
      <path
         id="path1409"
         d="m 21.620432,289.67726 c -0.335385,-0.0975 -0.849139,-0.63675 -0.942237,-0.98903 -0.203852,-0.7714 0.348072,-1.70121 1.359138,-2.28968 0.322151,-0.18749 1.353705,-0.55772 1.406289,-0.50471 0.100353,0.10116 0.232544,1.22581 0.204058,1.7361 -0.04046,0.72517 -0.294144,1.30624 -0.744818,1.70614 -0.420758,0.37334 -0.81286,0.47766 -1.28243,0.34118 z"
         style="fill:#bbe8ee;fill-opacity:1;stroke-width:0.06665378"
         inkscape:connector-curvature="0" />
      <path
         id="path1407"
         d="m 29.278351,289.69033 c -0.628802,-0.15432 -1.161769,-0.74788 -1.161769,-1.29385 0,-0.9547 0.937634,-1.95468 2.213854,-2.36109 0.292271,-0.0931 0.567518,-0.15525 0.611659,-0.13818 0.123894,0.0479 0.252048,1.09716 0.212347,1.73859 -0.06245,1.0097 -0.563335,1.80633 -1.268324,2.01737 -0.183219,0.0548 -0.350107,0.0967 -0.370869,0.0929 -0.02079,-0.003 -0.127358,-0.0288 -0.236898,-0.0557 z"
         style="fill:#bbe8ee;fill-opacity:1;stroke-width:0.06665378"
         inkscape:connector-curvature="0" />
    </g>
  </g>
</svg>
