<?xml version="1.0" encoding="UTF-8" standalone="no"?>
<!-- Created with Inkscape (http://www.inkscape.org/) -->

<svg
   xmlns:dc="http://purl.org/dc/elements/1.1/"
   xmlns:cc="http://creativecommons.org/ns#"
   xmlns:rdf="http://www.w3.org/1999/02/22-rdf-syntax-ns#"
   xmlns:svg="http://www.w3.org/2000/svg"
   xmlns="http://www.w3.org/2000/svg"
   xmlns:sodipodi="http://sodipodi.sourceforge.net/DTD/sodipodi-0.dtd"
   xmlns:inkscape="http://www.inkscape.org/namespaces/inkscape"
   width="150"
   height="150"
   viewBox="0 0 39.687501 39.687501"
   version="1.1"
   id="svg8"
   inkscape:version="0.92.2 (5c3e80d, 2017-08-06)"
   sodipodi:docname="snow.svg">
  <defs
     id="defs2">
    <mask
       maskUnits="userSpaceOnUse"
       id="mask1086">
      <rect
         style="fill:#b3b3b3;fill-opacity:1;stroke:none;stroke-width:15.10569286;stroke-linejoin:round;stroke-miterlimit:4;stroke-dasharray:none;stroke-opacity:1"
         id="rect1088"
         width="223.38394"
         height="98.651787"
         x="85.04464"
         y="128.42262" />
    </mask>
  </defs>
  <sodipodi:namedview
     id="base"
     pagecolor="#ffffff"
     bordercolor="#666666"
     borderopacity="1.0"
     inkscape:pageopacity="0.0"
     inkscape:pageshadow="2"
     inkscape:zoom="1.979899"
     inkscape:cx="127.98126"
     inkscape:cy="59.426096"
     inkscape:document-units="px"
     inkscape:current-layer="layer1"
     showgrid="false"
     showguides="true"
     inkscape:window-width="2400"
     inkscape:window-height="1271"
     inkscape:window-x="-9"
     inkscape:window-y="-9"
     inkscape:window-maximized="1"
     units="px" />
  <metadata
     id="metadata5">
    <rdf:RDF>
      <cc:Work
         rdf:about="">
        <dc:format>image/svg+xml</dc:format>
        <dc:type
           rdf:resource="http://purl.org/dc/dcmitype/StillImage" />
        <dc:title></dc:title>
      </cc:Work>
    </rdf:RDF>
  </metadata>
  <g
     inkscape:label="Layer 1"
     inkscape:groupmode="layer"
     id="layer1"
     transform="translate(0,-257.31251)">
    <g
       id="g1567">
      <g
         transform="translate(0.26726953,-6.9490079)"
         id="g1521">
        <path
           inkscape:connector-curvature="0"
           style="fill:#c1c4c7;fill-opacity:1;stroke-width:0.0779172"
           d="m 7.4251611,289.97487 c -1.2511855,-0.23028 -2.4907634,-0.74751 -3.6149182,-1.50837 -1.701172,-1.15139 -2.93090965,-2.79742 -3.64077437,-4.87325 -0.62043516,-1.81432 -0.57624284,-4.30116 0.10972604,-6.17466 0.23801443,-0.65006 0.96412623,-1.9973 1.34380683,-2.49333 1.7608572,-2.30044 4.5617859,-3.68054 7.4798322,-3.68553 l 0.7990607,-0.001 0.1321997,-0.24521 c 0.212933,-0.39496 0.981825,-1.5664 1.251124,-1.90613 0.136427,-0.17211 0.534157,-0.60747 0.883847,-0.96748 1.632439,-1.6806 3.612833,-2.77944 6.043002,-3.353 0.790756,-0.18664 1.034305,-0.20789 2.430902,-0.21216 2.222578,-0.007 3.504844,0.26586 5.282988,1.1233 2.541655,1.22561 4.344922,2.99789 5.686707,5.58898 0.401568,0.77546 0.855013,2.10158 1.023811,2.99418 l 0.09077,0.47998 0.399079,0.0527 c 0.219493,0.029 0.782543,0.18082 1.251221,0.33738 2.051693,0.68535 3.974969,2.60676 4.650678,4.64617 0.336435,1.01542 0.388583,1.35742 0.391871,2.57003 0.0026,0.94515 -0.02941,1.34197 -0.144985,1.7993 -0.483983,1.91516 -1.5298,3.48655 -3.030928,4.55412 -0.827043,0.58818 -1.234276,0.7759 -2.563568,1.18168 -0.542893,0.16572 -0.55115,0.16584 -13.115246,0.18153 -10.210001,0.0128 -12.6787624,-0.004 -13.1402029,-0.0889 z"
           id="path1384" />
        <path
           inkscape:connector-curvature="0"
           style="fill:#adb0b3;fill-opacity:1;stroke-width:0.0779172"
           d="m 8.3813778,290.03767 c -2.6324882,-0.17711 -5.3081816,-1.66807 -6.8108645,-3.79518 -1.03932903,-1.4712 -1.59701083,-2.96562 -1.76104091,-4.71903 -0.34205259,-3.6564 1.44162231,-7.12827 4.61464771,-8.98228 1.3664712,-0.79844 2.595369,-1.1415 4.3064802,-1.20221 l 1.2028776,-0.0427 0.3322741,-0.59944 c 0.769885,-1.38892 2.142554,-2.93013 3.421815,-3.84195 0.676987,-0.48254 1.835696,-1.1678 1.978178,-1.1699 0.03691,-4.4e-4 -0.137705,0.21977 -0.388025,0.48959 -1.605272,1.7303 -3.174854,4.13258 -4.458594,6.82399 -1.7739964,3.71925 -2.1096497,7.74163 -0.9367758,11.2261 0.3185008,0.94622 1.0717808,2.4376 1.7090468,3.38364 0.481441,0.71472 1.59692,2.06025 1.842431,2.22241 0.102238,0.0675 0.185888,0.15393 0.185888,0.19201 0,0.0637 -4.330147,0.076 -5.2383382,0.0149 z"
           id="path1395" />
        <path
           inkscape:connector-curvature="0"
           style="fill:#464d57;fill-opacity:1;stroke-width:0.0779172"
           d="m 19.124364,279.99951 c -0.722017,-0.12317 -1.624398,-0.77412 -1.624398,-1.17179 0,-0.3774 0.318218,-0.70503 0.684783,-0.70503 0.07384,0 0.320155,0.14081 0.547376,0.31292 0.370372,0.28054 0.459329,0.31292 0.859492,0.31292 0.352323,0 0.501915,-0.0408 0.710054,-0.19379 0.531438,-0.39057 0.734807,-0.46495 0.985309,-0.36035 0.234005,0.0977 0.403656,0.36494 0.403656,0.63583 0,0.25077 -0.509196,0.74241 -0.988548,0.95445 -0.512281,0.22662 -1.066388,0.30207 -1.577724,0.21484 z"
           id="path1393" />
        <path
           inkscape:connector-curvature="0"
           style="fill:#464d57;fill-opacity:1;stroke-width:0.0779172"
           d="m 13.327064,279.40025 c -0.209672,-0.085 -0.328188,-0.48716 -0.328188,-1.11354 0,-0.72832 0.0899,-0.97831 0.398092,-1.10699 0.262304,-0.10953 0.645725,0.0124 0.768949,0.24448 0.04105,0.0773 0.07464,0.4888 0.07464,0.9144 0,0.70771 -0.01534,0.78834 -0.179613,0.94391 -0.16936,0.16039 -0.498523,0.2132 -0.73388,0.11774 z"
           id="path1391" />
        <path
           inkscape:connector-curvature="0"
           style="fill:#464d57;fill-opacity:1;stroke-width:0.0779172"
           d="m 25.162386,279.35482 c -0.219146,-0.16776 -0.299349,-0.52347 -0.250082,-1.10917 0.06849,-0.81418 0.09485,-0.89057 0.354039,-1.02568 0.188575,-0.0983 0.288153,-0.10605 0.491874,-0.0383 0.340202,0.11318 0.43351,0.35102 0.43351,1.10501 0,0.65225 -0.118166,1.02658 -0.3527,1.1173 -0.205909,0.0796 -0.540061,0.0554 -0.676641,-0.0492 z"
           id="path1386" />
      </g>
      <path
         inkscape:connector-curvature="0"
         id="path1542"
         d="m 11.215518,291.61963 c -0.117661,-0.0424 -0.299436,-0.1832 -0.403948,-0.31298 -0.170434,-0.21165 -0.192902,-0.29096 -0.218025,-0.76962 -0.02575,-0.49054 -0.07326,-0.62626 -0.166455,-0.47547 -0.01978,0.0319 -0.208439,0.17336 -0.41924,0.31413 -0.3109515,0.20765 -0.4382349,0.2559 -0.674541,0.2557 -0.7022099,-4.4e-4 -1.1224619,-0.63068 -0.8425241,-1.26326 0.1046313,-0.23644 0.2623346,-0.3774 1.1062669,-0.98878 l 0.9842382,-0.71303 v -0.64559 -0.64559 l -0.196332,-0.0392 c -0.107982,-0.0216 -0.3977694,-0.0391 -0.6439715,-0.0388 l -0.4476376,4.5e-4 -0.7244096,0.98663 c -0.4356686,0.59337 -0.8069344,1.03483 -0.931455,1.10755 -0.5946537,0.34727 -1.3598065,-0.0895 -1.3598065,-0.77633 0,-0.26633 0.042228,-0.36619 0.32984,-0.77989 0.1814101,-0.26094 0.3298384,-0.48623 0.3298384,-0.50063 0,-0.0144 -0.2707908,-0.036 -0.6017577,-0.0479 -0.6003892,-0.0217 -0.6022327,-0.0223 -0.8097832,-0.24886 -0.2883055,-0.31471 -0.3404842,-0.65479 -0.1582302,-1.03128 0.1833176,-0.37869 0.407671,-0.49223 1.0507612,-0.53177 l 0.5176277,-0.0319 -0.3107736,-0.45645 c -0.1709263,-0.25104 -0.3287123,-0.55207 -0.3506388,-0.66895 -0.055815,-0.29751 0.1535923,-0.75035 0.4229223,-0.91455 0.2465345,-0.15031 0.6718808,-0.1673 0.924017,-0.0369 0.1808167,0.0935 0.7165193,0.72095 1.061014,1.24271 0.1077508,0.1632 0.2892678,0.42361 0.403372,0.5787 l 0.207462,0.28198 0.6439707,0.002 0.6439704,0.002 v -0.68514 -0.68514 l -0.424078,-0.30535 c -0.2332419,-0.1684 -0.5654385,-0.40291 -0.7382116,-0.52114 -0.413546,-0.283 -0.8370278,-0.68224 -0.9477294,-0.89348 -0.3073915,-0.58657 0.1674266,-1.30598 0.8623372,-1.30654 0.2329385,-1.7e-4 0.3529508,0.0438 0.5968514,0.21877 0.1679074,0.12045 0.3830334,0.26253 0.4780594,0.31575 l 0.172771,0.0967 1.27e-4,-0.4571 c 1.26e-4,-0.54365 0.119532,-0.82681 0.439688,-1.0426 0.180634,-0.12175 0.279244,-0.14344 0.552337,-0.12152 0.629296,0.0505 0.892416,0.40425 0.892575,1.19994 l 1.26e-4,0.49292 0.298425,-0.22744 c 0.622217,-0.47422 0.938038,-0.56451 1.359155,-0.38856 0.462455,0.19323 0.673124,0.89446 0.395853,1.31762 -0.06275,0.0958 -0.550435,0.49827 -1.083757,0.89448 l -0.969733,0.72036 v 0.68913 0.68913 h 0.679346 0.679347 l 0.717924,-0.98391 c 0.394856,-0.54115 0.803018,-1.0358 0.907021,-1.09922 0.105784,-0.0645 0.308117,-0.11543 0.459229,-0.11556 0.547655,-4.4e-4 0.915156,0.36154 0.92047,0.90674 0.0028,0.28525 -0.0313,0.36687 -0.329607,0.78935 l -0.332709,0.47119 0.558001,0.0318 c 0.485979,0.0277 0.587454,0.0542 0.786174,0.20584 0.424732,0.32395 0.464477,0.92454 0.08763,1.32411 -0.23381,0.24792 -0.551804,0.3536 -1.065388,0.3541 l -0.361831,3.6e-4 0.326793,0.47006 c 0.288057,0.41435 0.326793,0.50747 0.326793,0.78558 0,0.68054 -0.71871,1.10932 -1.329757,0.79333 -0.217688,-0.11257 -0.401119,-0.33309 -1.174814,-1.41239 l -0.501376,-0.69944 h -0.67662 -0.676622 v 0.67765 0.67766 l 0.675385,0.49568 c 0.371461,0.27263 0.821017,0.60261 0.999013,0.73329 0.572854,0.42059 0.672631,1.01982 0.247115,1.48413 -0.184019,0.2008 -0.248226,0.22885 -0.578606,0.25275 -0.361221,0.0261 -0.384764,0.0179 -0.841557,-0.29307 l -0.469937,-0.31994 -0.03406,0.51762 c -0.03825,0.58125 -0.09852,0.7277 -0.390863,0.94957 -0.25329,0.19224 -0.577903,0.24818 -0.857058,0.14768 z"
         style="fill:#8dcdd7;stroke-width:0.06282646;fill-opacity:1" />
      <path
         inkscape:connector-curvature="0"
         id="path1542-2"
         d="m 29.618271,295.50831 c -0.08521,-0.0307 -0.216841,-0.13266 -0.292524,-0.22664 -0.123422,-0.15327 -0.139692,-0.21071 -0.157885,-0.55733 -0.01865,-0.35523 -0.05305,-0.45352 -0.120541,-0.34432 -0.01432,0.0231 -0.150943,0.12554 -0.303597,0.22748 -0.22518,0.15037 -0.317353,0.18531 -0.488477,0.18517 -0.508514,-3.3e-4 -0.812844,-0.45672 -0.610124,-0.91481 0.07577,-0.17122 0.189972,-0.2733 0.801116,-0.71603 l 0.712748,-0.51635 v -0.46751 -0.46752 l -0.142176,-0.0284 c -0.0782,-0.0156 -0.28805,-0.0283 -0.46634,-0.0281 l -0.324162,3.3e-4 -0.52459,0.71448 c -0.315495,0.42969 -0.584351,0.74938 -0.674524,0.80204 -0.430626,0.25148 -0.984719,-0.0648 -0.984719,-0.56219 0,-0.19286 0.03058,-0.26518 0.238857,-0.56476 0.13137,-0.18897 0.238856,-0.35211 0.238856,-0.36254 0,-0.0104 -0.196096,-0.0261 -0.43577,-0.0347 -0.434779,-0.0157 -0.436113,-0.0161 -0.586414,-0.18021 -0.208779,-0.2279 -0.246565,-0.47418 -0.114584,-0.74682 0.132751,-0.27423 0.29522,-0.35645 0.760921,-0.38508 l 0.374846,-0.0231 -0.22505,-0.33054 c -0.123778,-0.18179 -0.238041,-0.39979 -0.25392,-0.48443 -0.04041,-0.21544 0.111226,-0.54337 0.306265,-0.66228 0.17853,-0.10885 0.48655,-0.12115 0.669138,-0.0267 0.13094,0.0677 0.518875,0.52208 0.768346,0.89992 0.07803,0.11819 0.209476,0.30676 0.292106,0.41907 l 0.150236,0.2042 0.466339,10e-4 0.466339,0.001 v -0.49617 -0.49616 l -0.307101,-0.2211 c -0.168905,-0.12195 -0.409469,-0.29177 -0.534585,-0.37739 -0.299474,-0.20493 -0.606144,-0.49405 -0.686309,-0.64702 -0.222602,-0.42477 0.121243,-0.94574 0.624471,-0.94615 0.168685,-1.2e-4 0.255594,0.0317 0.432217,0.15843 0.121593,0.0872 0.277379,0.19011 0.346193,0.22865 l 0.125114,0.07 9.2e-5,-0.33102 c 9.1e-5,-0.39369 0.08656,-0.59874 0.318405,-0.75501 0.130808,-0.0882 0.202218,-0.10387 0.399981,-0.088 0.455713,0.0366 0.646254,0.29275 0.646369,0.86895 l 9.1e-5,0.35696 0.216108,-0.16471 c 0.450586,-0.34341 0.679292,-0.40879 0.984249,-0.28138 0.334892,0.13993 0.48745,0.64774 0.286661,0.95417 -0.04544,0.0694 -0.398604,0.36083 -0.784815,0.64775 l -0.702244,0.52166 v 0.49904 0.49904 h 0.491957 0.491957 l 0.519893,-0.71251 c 0.285939,-0.39188 0.581514,-0.75008 0.656829,-0.79601 0.07661,-0.0467 0.223127,-0.0836 0.332557,-0.0837 0.396591,-3.3e-4 0.66272,0.26181 0.666568,0.65662 0.002,0.20657 -0.02267,0.26567 -0.238688,0.57162 l -0.240935,0.34122 0.404082,0.023 c 0.351928,0.0201 0.425412,0.0392 0.569318,0.14907 0.307574,0.23459 0.336357,0.66951 0.06346,0.95887 -0.169316,0.17953 -0.399595,0.25606 -0.771513,0.25642 l -0.262024,2.7e-4 0.23665,0.3404 c 0.2086,0.30006 0.236651,0.36749 0.236651,0.56889 0,0.49282 -0.520461,0.80332 -0.962959,0.5745 -0.157641,-0.0815 -0.290474,-0.24122 -0.850754,-1.0228 l -0.363078,-0.50651 h -0.489982 -0.489984 v 0.49073 0.49073 l 0.489088,0.35896 c 0.268998,0.19742 0.594549,0.43638 0.723447,0.53102 0.414839,0.30457 0.487094,0.73851 0.178951,1.07475 -0.133259,0.14541 -0.179755,0.16572 -0.419004,0.18303 -0.261582,0.0189 -0.278631,0.013 -0.609423,-0.21223 l -0.340311,-0.23169 -0.02467,0.37484 c -0.0277,0.42092 -0.07134,0.52697 -0.283048,0.68764 -0.183423,0.13922 -0.418495,0.17973 -0.620649,0.10695 z"
         style="fill:#bbe8ee;stroke-width:0.04549652;fill-opacity:1" />
    </g>
  </g>
</svg>
