<?xml version="1.0" encoding="UTF-8" standalone="no"?>
<!-- Created with Inkscape (http://www.inkscape.org/) -->

<svg
   xmlns:dc="http://purl.org/dc/elements/1.1/"
   xmlns:cc="http://creativecommons.org/ns#"
   xmlns:rdf="http://www.w3.org/1999/02/22-rdf-syntax-ns#"
   xmlns:svg="http://www.w3.org/2000/svg"
   xmlns="http://www.w3.org/2000/svg"
   xmlns:sodipodi="http://sodipodi.sourceforge.net/DTD/sodipodi-0.dtd"
   xmlns:inkscape="http://www.inkscape.org/namespaces/inkscape"
   width="150"
   height="150"
   viewBox="0 0 39.687501 39.687501"
   version="1.1"
   id="svg8"
   inkscape:version="0.92.2 (5c3e80d, 2017-08-06)"
   sodipodi:docname="fog.svg">
  <defs
     id="defs2">
    <mask
       maskUnits="userSpaceOnUse"
       id="mask1086">
      <rect
         style="fill:#b3b3b3;fill-opacity:1;stroke:none;stroke-width:15.10569286;stroke-linejoin:round;stroke-miterlimit:4;stroke-dasharray:none;stroke-opacity:1"
         id="rect1088"
         width="223.38394"
         height="98.651787"
         x="85.04464"
         y="128.42262" />
    </mask>
  </defs>
  <sodipodi:namedview
     id="base"
     pagecolor="#ffffff"
     bordercolor="#666666"
     borderopacity="1.0"
     inkscape:pageopacity="0.0"
     inkscape:pageshadow="2"
     inkscape:zoom="1.4"
     inkscape:cx="94.961734"
     inkscape:cy="-143.6031"
     inkscape:document-units="px"
     inkscape:current-layer="layer1"
     showgrid="false"
     showguides="true"
     inkscape:window-width="2400"
     inkscape:window-height="1271"
     inkscape:window-x="-9"
     inkscape:window-y="-9"
     inkscape:window-maximized="1"
     units="px" />
  <metadata
     id="metadata5">
    <rdf:RDF>
      <cc:Work
         rdf:about="">
        <dc:format>image/svg+xml</dc:format>
        <dc:type
           rdf:resource="http://purl.org/dc/dcmitype/StillImage" />
        <dc:title></dc:title>
      </cc:Work>
    </rdf:RDF>
  </metadata>
  <g
     inkscape:label="Layer 1"
     inkscape:groupmode="layer"
     id="layer1"
     transform="translate(0,-257.31251)">
    <g
       id="g2569">
      <rect
         y="272.14395"
         x="11.893496"
         height="5.8799305"
         width="16.036173"
         id="rect2554"
         style="fill:#464d57;fill-opacity:1;stroke:none;stroke-width:0.60668981;stroke-linejoin:round;stroke-miterlimit:4;stroke-dasharray:none;stroke-opacity:1" />
      <path
         inkscape:connector-curvature="0"
         id="path2552"
         d="m 5.8280832,291.06816 c -0.633073,-0.15443 -1.216628,-0.86997 -1.3715225,-1.68171 -0.1919071,-1.00571 0.2636023,-2.07302 1.0701894,-2.50757 0.2900228,-0.15625 0.5764935,-0.17163 3.2311495,-0.1735 1.6104234,-10e-4 3.1045344,-0.0441 3.3414544,-0.0962 1.797869,-0.39478 2.140983,-3.21142 0.515634,-4.23288 -0.322697,-0.2028 -0.372642,-0.20519 -5.298172,-0.25353 -3.9787294,-0.0391 -5.0280486,-0.0747 -5.250858,-0.17849 -0.4459589,-0.2077 -1.0531713,-0.69405 -1.33111339,-1.06618 -1.06820886,-1.43021 -0.95851636,-3.6876 0.24235489,-4.98762 0.781345,-0.84586 1.1743771,-0.95802 3.3616245,-0.95928 2.0380877,-10e-4 2.3820555,-0.0773 2.8723054,-0.63612 0.8196561,-0.93421 0.857863,-2.31242 0.089143,-3.21525 -0.5519343,-0.64822 -0.6501898,-0.67227 -2.9668969,-0.72642 -2.0323705,-0.0475 -2.0764072,-0.0527 -2.5200241,-0.29694 -2.19120105,-1.20638 -2.44359925,-4.7048 -0.4521716,-6.26741 0.8615735,-0.67605 -0.49913991,-0.63117 18.4065372,-0.60701 l 17.025509,0.0218 0.45767,0.2519 c 0.64286,0.35382 1.261769,1.07085 1.538945,1.78294 0.28449,0.73087 0.353097,1.83624 0.161912,2.60863 -0.24039,0.97116 -1.088145,2.01429 -1.903415,2.34211 -0.154372,0.062 -1.338954,0.12361 -2.999879,0.15584 -2.616402,0.0508 -2.759649,0.0627 -3.062999,0.25529 -0.700079,0.44447 -1.07404,1.1549 -1.07404,2.04045 0,0.88721 0.378134,1.60399 1.07404,2.0359 0.280922,0.17437 0.495459,0.20354 1.829846,0.24878 1.481563,0.0502 1.52189,0.057 2.028965,0.3392 2.365178,1.31643 2.37571,5.20369 0.01766,6.51561 l -0.535012,0.29766 -3.142556,0.0467 c -3.02343,0.045 -3.154664,0.0544 -3.461837,0.24756 -1.488203,0.93616 -1.464956,3.26361 0.04082,4.08688 0.350308,0.19153 0.46741,0.19619 5.439892,0.21657 5.010344,0.0206 5.086498,0.0236 5.409976,0.21965 0.46953,0.28453 0.681311,0.5376 0.894754,1.06917 0.453386,1.12913 0.01759,2.48851 -0.96445,3.0084 -0.303264,0.16054 -1.073266,0.16847 -16.366317,0.16847 -8.826448,0 -16.1835463,-0.0331 -16.3491112,-0.0734 z M 20.739323,276.78512 c 1.092424,-0.47624 1.501077,-1.59022 0.712528,-1.94232 -0.221848,-0.0991 -0.549552,-0.01 -0.647544,0.17645 -0.02909,0.0553 -0.199991,0.18867 -0.379757,0.29637 -0.432934,0.2594 -0.911995,0.19866 -1.359107,-0.17232 -0.439622,-0.36476 -0.571318,-0.41278 -0.823434,-0.3002 -0.772124,0.34477 -0.412679,1.39979 0.650565,1.9095 0.610035,0.29244 1.225697,0.30328 1.846749,0.0325 z m -6.13929,-0.68266 c 0.178113,-0.20919 0.195278,-0.30254 0.195278,-1.06193 0,-0.68888 -0.02725,-0.87326 -0.157856,-1.06828 -0.276597,-0.41297 -0.737594,-0.40591 -1.013101,0.0155 -0.05969,0.0914 -0.09789,0.48188 -0.09945,1.01679 -0.0022,0.7996 0.01297,0.88675 0.192749,1.09789 0.123096,0.14457 0.286177,0.22934 0.441188,0.22934 0.155007,0 0.318092,-0.0848 0.441188,-0.22934 z m 11.376857,0 c 0.179782,-0.21114 0.19508,-0.29829 0.192752,-1.09789 -0.0015,-0.53491 -0.03976,-0.92549 -0.09945,-1.01679 -0.275506,-0.42144 -0.736499,-0.4285 -1.013096,-0.0155 -0.130614,0.19502 -0.15786,0.3794 -0.15786,1.06828 0,0.75939 0.01718,0.85273 0.195282,1.06192 0.123092,0.14458 0.286177,0.22935 0.441184,0.22935 0.155011,0 0.318092,-0.0848 0.441188,-0.22935 z"
         style="fill:#c1c4c7;fill-opacity:1;stroke-width:0.08621902" />
    </g>
  </g>
</svg>
