<?xml version="1.0" encoding="UTF-8" standalone="no"?>
<!-- Created with Inkscape (http://www.inkscape.org/) -->

<svg
   xmlns:dc="http://purl.org/dc/elements/1.1/"
   xmlns:cc="http://creativecommons.org/ns#"
   xmlns:rdf="http://www.w3.org/1999/02/22-rdf-syntax-ns#"
   xmlns:svg="http://www.w3.org/2000/svg"
   xmlns="http://www.w3.org/2000/svg"
   xmlns:sodipodi="http://sodipodi.sourceforge.net/DTD/sodipodi-0.dtd"
   xmlns:inkscape="http://www.inkscape.org/namespaces/inkscape"
   width="150"
   height="150"
   viewBox="0 0 39.687499 39.687501"
   version="1.1"
   id="svg8"
   inkscape:version="0.92.2 (5c3e80d, 2017-08-06)"
   sodipodi:docname="error.svg">
  <defs
     id="defs2">
    <mask
       id="mask1086"
       maskUnits="userSpaceOnUse">
      <rect
         y="128.42262"
         x="85.04464"
         height="98.651787"
         width="223.38394"
         id="rect1088"
         style="fill:#b3b3b3;fill-opacity:1;stroke:none;stroke-width:15.10569286;stroke-linejoin:round;stroke-miterlimit:4;stroke-dasharray:none;stroke-opacity:1" />
    </mask>
    <mask
       id="mask1086-5"
       maskUnits="userSpaceOnUse">
      <rect
         y="128.42262"
         x="85.04464"
         height="98.651787"
         width="223.38394"
         id="rect1088-1"
         style="fill:#b3b3b3;fill-opacity:1;stroke:none;stroke-width:15.10569286;stroke-linejoin:round;stroke-miterlimit:4;stroke-dasharray:none;stroke-opacity:1" />
    </mask>
  </defs>
  <sodipodi:namedview
     id="base"
     pagecolor="#ffffff"
     bordercolor="#666666"
     borderopacity="1.0"
     inkscape:pageopacity="0.0"
     inkscape:pageshadow="2"
     inkscape:zoom="5.6"
     inkscape:cx="50.326679"
     inkscape:cy="45.593228"
     inkscape:document-units="mm"
     inkscape:current-layer="layer1-9"
     showgrid="false"
     units="px"
     inkscape:window-width="2400"
     inkscape:window-height="1271"
     inkscape:window-x="-9"
     inkscape:window-y="-9"
     inkscape:window-maximized="1" />
  <metadata
     id="metadata5">
    <rdf:RDF>
      <cc:Work
         rdf:about="">
        <dc:format>image/svg+xml</dc:format>
        <dc:type
           rdf:resource="http://purl.org/dc/dcmitype/StillImage" />
        <dc:title></dc:title>
      </cc:Work>
    </rdf:RDF>
  </metadata>
  <g
     inkscape:label="Layer 1"
     inkscape:groupmode="layer"
     id="layer1"
     transform="translate(0,-257.31248)">
    <g
       id="g1315"
       transform="matrix(0.21972353,0,0,0.2195763,32.723153,228.65657)">
      <path
         id="path1280"
         d="m -111.85576,278.30104 c -8.62462,-1.29533 -16.12491,-4.69731 -22.69939,-10.296 -6.92503,-5.89722 -12.3059,-15.60151 -13.82305,-24.92963 -2.15639,-13.25841 2.02899,-26.79878 11.26175,-36.4335 3.40821,-3.5566 6.38118,-5.79256 10.7968,-8.12022 6.14706,-3.24038 11.35879,-4.59429 18.87361,-4.90303 l 4.93889,-0.2029 1.51046,-2.70182 c 5.108663,-9.1381 14.285472,-17.5966 24.093115,-22.20726 7.288062,-3.42618 13.453884,-4.92281 21.573806,-5.23662 13.535457,-0.52311 26.345832,3.75225 36.865416,12.30352 9.6375087,7.83424 16.4091952,18.88082 19.01892552,31.02535 l 0.58772428,2.735 1.7975053,0.24434 c 2.5708859,0.34946 7.6603589,2.07453 10.4584049,3.54486 3.471472,1.82421 7.918867,5.5596 10.63211,8.92996 8.703755,10.81173 10.125704,25.71995 3.628401,38.04146 -4.182079,7.93091 -10.858124,13.63533 -19.3547917,16.53791 -5.7693319,1.97088 -3.3689717,1.90117 -63.6660133,1.84908 -30.58645,-0.0264 -56.008603,-0.10765 -56.493673,-0.1805 z"
         style="fill:#c1c4c7;fill-opacity:1;stroke-width:0.35277781"
         inkscape:connector-curvature="0" />
      <path
         id="path1302"
         d="m -109.03354,278.28373 c -8.0169,-0.47653 -16.11149,-3.45032 -22.72404,-8.34834 -8.43831,-6.2504 -14.43154,-15.91026 -16.27426,-26.23079 -0.64485,-3.61159 -0.74171,-10.89591 -0.18966,-14.26345 3.39181,-20.69041 20.82611,-35.57529 41.67136,-35.57776 l 4.07091,-4.8e-4 1.28714,-2.38305 c 2.058458,-3.8111 4.63019,-7.23871 8.308933,-11.07416 4.539619,-4.733 9.549939,-8.51087 14.922141,-11.25156 l 1.505257,-0.76793 -1.313021,1.53765 c -6.95094,8.14009 -9.730702,11.88152 -13.723371,18.47099 -7.549233,12.4592 -11.297939,21.41772 -13.297019,31.77672 -1.2318,6.38304 -1.46212,10.82017 -0.90269,17.39073 0.85787,10.07591 2.46585,15.29702 7.673475,24.91589 2.574149,4.75463 6.198087,9.63336 10.285265,13.84653 l 2.138924,2.20486 -10.749532,-0.0653 c -5.912242,-0.0359 -11.622652,-0.11715 -12.689812,-0.18059 z"
         style="fill:#adb0b3;fill-opacity:1;stroke-width:0.35277781"
         inkscape:connector-curvature="0" />
      <path
         id="path1300"
         d="m -60.81172,232.20311 c -2.320321,0.5159 -4.133657,1.49395 -5.360506,2.89125 -1.273228,1.45013 -1.28338,2.48234 -0.03668,3.72904 0.809794,0.8098 1.132029,0.93453 1.977435,0.76545 0.555495,-0.1111 1.373182,-0.53996 1.81708,-0.95304 1.247934,-1.16128 2.055695,-1.46537 3.888928,-1.46408 1.672793,9e-4 1.843362,0.0735 4.685376,1.98608 0.453769,0.30537 1.086661,0.55599 1.406421,0.55691 0.861878,0.003 2.441814,-1.72364 2.441814,-2.66774 0,-1.84894 -3.404573,-4.315 -6.820864,-4.94059 -1.038552,-0.19019 -1.969379,-0.33379 -2.068505,-0.31911 -0.09913,0.0147 -0.96785,0.20178 -1.930501,0.41583 z"
         style="fill:#5d636c;fill-opacity:1;stroke-width:0.31823143"
         inkscape:connector-curvature="0" />
      <path
         id="path1298"
         d="m -87.080541,230.31569 c -1.381654,-0.55591 -2.096841,-6.48481 -1.035385,-8.58334 0.673657,-1.33184 2.165435,-1.93245 3.463897,-1.39461 1.503532,0.62279 1.72405,1.28668 1.72405,5.19048 0,3.19138 -0.06975,3.55501 -0.816487,4.25653 -0.769877,0.72326 -2.266191,0.9614 -3.336075,0.53094 z"
         style="fill:#5d636c;fill-opacity:1;stroke-width:0.35277781"
         inkscape:connector-curvature="0" />
      <path
         id="path1278"
         d="m -33.477593,229.73531 c -0.677622,-0.7213 -0.767048,-1.21148 -0.767048,-4.20448 0,-3.97555 0.110554,-4.36066 1.450816,-5.05373 1.272601,-0.65809 2.574689,-0.35497 3.493654,0.81331 0.57216,0.72738 0.699975,1.43193 0.699975,3.85843 0,3.08954 -0.519056,4.76775 -1.603305,5.18382 -1.171931,0.44971 -2.521796,0.20343 -3.274092,-0.59735 z"
         style="fill:#5d636c;fill-opacity:1;stroke-width:0.35277781"
         inkscape:connector-curvature="0" />
      <g
         transform="matrix(4.5511738,0,0,4.5542255,-341.52223,-1014.8319)"
         id="layer1-9"
         inkscape:label="Layer 1">
        <path
           id="path1405"
           d="m 54.307242,276.18221 c -0.526747,-0.14182 -0.673732,-0.69502 -0.320107,-1.20297 0.16522,-0.23732 0.666795,-0.55639 1.034501,-0.6581 0.08046,-0.0223 0.09085,-0.0137 0.133694,0.11379 0.02699,0.0801 0.05424,0.32344 0.065,0.5802 0.01761,0.42041 0.01432,0.45267 -0.06795,0.65271 -0.104849,0.25498 -0.299425,0.4546 -0.501725,0.51456 -0.169404,0.0502 -0.156758,0.0502 -0.343401,-2.4e-4 z"
           style="fill:#bbe8ee;fill-opacity:1;stroke-width:0.03265855"
           inkscape:connector-curvature="0" />
        <path
           inkscape:connector-curvature="0"
           style="fill:#bbe8ee;fill-opacity:1;stroke-width:0.03265855"
           d="m 67.823123,276.63724 c -0.535533,0.10378 -0.910704,-0.328 -0.816432,-0.9397 0.04404,-0.28579 0.354243,-0.79291 0.639779,-1.04593 0.06248,-0.0554 0.07559,-0.0522 0.170113,0.0434 0.05945,0.06 0.190922,0.26664 0.313479,0.49253 0.200667,0.36985 0.211899,0.40027 0.225958,0.61611 0.01794,0.27511 -0.06905,0.53995 -0.224382,0.68275 -0.130065,0.11962 -0.11871,0.11406 -0.308526,0.1508 z"
           id="path976" />
        <path
           id="path1405-5"
           d="m 57.867496,277.40088 c -0.484655,0.25035 -0.966213,-0.0583 -1.047967,-0.67184 -0.0382,-0.28664 0.116684,-0.86057 0.319437,-1.18374 0.04436,-0.0708 0.05784,-0.0714 0.175459,-0.006 0.07395,0.0409 0.258268,0.2021 0.439461,0.38435 0.296675,0.29839 0.316019,0.32442 0.390275,0.52757 0.09467,0.25893 0.08576,0.53755 -0.02309,0.71831 -0.09113,0.1514 -0.0818,0.14286 -0.253591,0.23156 z"
           style="fill:#bbe8ee;fill-opacity:1;stroke-width:0.03265855"
           inkscape:connector-curvature="0" />
        <path
           id="path1405-2"
           d="m 70.272935,278.23294 c -0.501546,0.21451 -0.95943,-0.12832 -0.996446,-0.74613 -0.0173,-0.28865 0.178829,-0.84983 0.404501,-1.15743 0.04937,-0.0673 0.06287,-0.067 0.175447,0.007 0.07078,0.0462 0.24292,0.22032 0.41041,0.41523 0.274238,0.31914 0.291641,0.34651 0.350958,0.55451 0.07563,0.26512 0.04652,0.54236 -0.07516,0.71474 -0.101874,0.14438 -0.09195,0.13655 -0.269727,0.21255 z"
           style="fill:#bbe8ee;fill-opacity:1;stroke-width:0.03265855"
           inkscape:connector-curvature="0" />
        <path
           id="path1405-5-6"
           d="m 55.102119,279.30484 c -0.545103,0.0206 -0.849859,-0.46337 -0.663142,-1.05349 0.08723,-0.27571 0.471322,-0.72943 0.792188,-0.93581 0.07024,-0.0452 0.0827,-0.0401 0.16138,0.0691 0.04956,0.0685 0.147907,0.2927 0.234479,0.53467 0.141756,0.39618 0.148205,0.42797 0.129095,0.64341 -0.02433,0.27462 -0.150799,0.52304 -0.326145,0.64041 -0.14683,0.0983 -0.134754,0.0945 -0.327956,0.10185 z"
           style="fill:#bbe8ee;fill-opacity:1;stroke-width:0.03265855"
           inkscape:connector-curvature="0" />
      </g>
    </g>
  </g>
</svg>
